<svg xmlns="http://www.w3.org/2000/svg" viewBox="0 0 1122.96 155.54"><defs><style>.cls-1{fill:#5c6b8d;}</style></defs><g id="Layer_2" data-name="Layer 2"><g id="Layer_7" data-name="Layer 7"><path class="cls-1" d="M1123,126.33c.09-3.27-11.23-7.67-16.35-5.81C1108.61,119.79,1123.14,129.24,1123,126.33Z"/><path class="cls-1" d="M1103.52,119.25c-3-1.27-11.47.37-15.07,1.82C1093.79,118.92,1106.25,122.34,1103.52,119.25Z"/><path class="cls-1" d="M963.1,98.1c-.37.38-.76.74-1.13,1.13A13.3,13.3,0,0,0,963.1,98.1Z"/><path class="cls-1" d="M911.06,79.82c.76.06,1.3.18,1.67.22C914.33,80.08,910.06,79.46,911.06,79.82Z"/><path class="cls-1" d="M886.22,93.29c.42-.41.77-.75,1.16-1.11A3.88,3.88,0,0,0,886.22,93.29Z"/><path class="cls-1" d="M963.1,98.1c1-1,2-1.9,3-2.84C965.93,94.76,964.44,96.63,963.1,98.1Z"/><path class="cls-1" d="M1039.77,129.42c-.7.22-1.75-.07-2.23.44A12.39,12.39,0,0,0,1039.77,129.42Z"/><path class="cls-1" d="M1005.56,99.86c-.81.82-.28,1.88-.24,2.54C1005.08,101.58,1007.56,99.54,1005.56,99.86Z"/><path class="cls-1" d="M1026,124.57l1-.13Z"/><path class="cls-1" d="M949.12,124.09a.92.92,0,0,0,.51-.31C949.5,123.74,949.32,123.87,949.12,124.09Z"/><path class="cls-1" d="M513.41,94c0,.08,0,.13,0,.2C513.71,94.11,513.8,94,513.41,94Z"/><path class="cls-1" d="M851.91,123.33l.17,0C853,122.77,852.44,123,851.91,123.33Z"/><path class="cls-1" d="M755.48,31.62c-4.51,1.31,6.29-5.06-.68-2.38.4,0-.83,1.23-1.44,2.11C752.46,32.91,753.74,32.3,755.48,31.62Z"/><path class="cls-1" d="M1036.11,128.77c-.71,0-1.43.07-2.15.08A17.2,17.2,0,0,0,1036.11,128.77Z"/><path class="cls-1" d="M809.67,124.42a3.14,3.14,0,0,0,1.16,0C810.75,124.28,810.47,124.27,809.67,124.42Z"/><path class="cls-1" d="M808,109.82c-.67.29-.67.9-1.41,1.52A9.16,9.16,0,0,0,808,109.82Z"/><path class="cls-1" d="M816,83.29a12.54,12.54,0,0,0,3.13.57C818.08,83.62,817,83.46,816,83.29Z"/><path class="cls-1" d="M595.92,131.92a7.2,7.2,0,0,1-2.35-.17C594.53,132.23,588.33,134.93,595.92,131.92Z"/><path class="cls-1" d="M1036.11,128.77a.48.48,0,0,1,.12,0A.47.47,0,0,0,1036.11,128.77Z"/><path class="cls-1" d="M1037.49,129.23l-.06,0C1037.73,129.42,1037.86,129.48,1037.49,129.23Z"/><path class="cls-1" d="M1036.23,128.77a2.58,2.58,0,0,1,.55.19A1.07,1.07,0,0,0,1036.23,128.77Z"/><path class="cls-1" d="M1037.43,129.27l-.65-.31C1037.07,129.13,1037.28,129.35,1037.43,129.27Z"/><path class="cls-1" d="M805.9,99.42c-1.54,1.36-3.45,3.23-5.24,5.15C802.38,102.82,804.12,101.1,805.9,99.42Z"/><path class="cls-1" d="M814.26,91.78c-.1.2-.54.28-.73.38C814.56,92.15,815.67,90.86,814.26,91.78Z"/><path class="cls-1" d="M91.62,51.14a.84.84,0,0,0,.14.4Z"/><path class="cls-1" d="M661.87,73.9s0,0,0-.05C661.69,74,661.68,74.08,661.87,73.9Z"/><path class="cls-1" d="M94.88,49.7a.78.78,0,0,1-.12.39A.48.48,0,0,0,94.88,49.7Z"/><path class="cls-1" d="M319.81,31.51a12.12,12.12,0,0,0,1.37-1.44A12.16,12.16,0,0,0,319.81,31.51Z"/><path class="cls-1" d="M798.49,121.52c-.34.51-.64,1-.89,1.48A14.94,14.94,0,0,0,798.49,121.52Z"/><path class="cls-1" d="M109.39,90.84a.05.05,0,0,1,0,0Z"/><path class="cls-1" d="M83.93,101.17l.64-.85C84.08,100.67,83.81,101,83.93,101.17Z"/><path class="cls-1" d="M133.7,141.69l-.7.87A5.32,5.32,0,0,0,133.7,141.69Z"/><path class="cls-1" d="M223.08,9.68l.29.31A.59.59,0,0,0,223.08,9.68Z"/><path class="cls-1" d="M103,37.4h.34A.22.22,0,0,0,103,37.4Z"/><path class="cls-1" d="M94.1,40.17l.69-.09C94.69,39.94,94.52,39.91,94.1,40.17Z"/><path class="cls-1" d="M988.31,120.6c-.23.41-.46.81-.69,1.17C988.15,121.12,988.36,120.75,988.31,120.6Z"/><path class="cls-1" d="M114.55,12.33l-.31.19h.1Z"/><path class="cls-1" d="M829.88,125.31l1.31,2.17A8.21,8.21,0,0,0,829.88,125.31Z"/><path class="cls-1" d="M987.62,121.77c-.25.3-.55.65-1,1.09A3.54,3.54,0,0,0,987.62,121.77Z"/><path class="cls-1" d="M915.93,92.26h0v0Z"/><path class="cls-1" d="M900.13,125.41a2.55,2.55,0,0,1-.25-1.06c-.18-.37-.36-.74-.54-1.13A5.66,5.66,0,0,0,900.13,125.41Z"/><path class="cls-1" d="M1037.9,126.54a4.86,4.86,0,0,0,1.66-.47Z"/><path class="cls-1" d="M850.3,92.58c.81-2.2,1-4-2.34-4.9-.14,0-.27,0-.41,0A4.44,4.44,0,0,1,850.3,92.58Z"/><path class="cls-1" d="M847.55,87.68a4.72,4.72,0,0,0-5.13,1.15A10.11,10.11,0,0,1,847.55,87.68Z"/><path class="cls-1" d="M1079.53,120.58c-2.84.11-3.54.44-3.13.75C1078.5,121,1079.7,120.69,1079.53,120.58Z"/><path class="cls-1" d="M835.58,120.48a9.82,9.82,0,0,0-.23-1.78A2.53,2.53,0,0,0,835.58,120.48Z"/><path class="cls-1" d="M1081.16,121.8a8.35,8.35,0,0,0,.92-.17Z"/><path class="cls-1" d="M1084.12,120.23a2.63,2.63,0,0,1-2,1.4C1085.63,121,1087.77,120.33,1084.12,120.23Z"/><path class="cls-1" d="M795.67,82.87h0Z"/><path class="cls-1" d="M850.3,92.58c-.29.76-.64,1.57-.95,2.41A6.43,6.43,0,0,0,850.3,92.58Z"/><path class="cls-1" d="M372.07,93.61Z"/><path class="cls-1" d="M244.88,133.43c1.69-1.13,3.3-2.27,4.75-3.38C246.49,131.91,245.14,133,244.88,133.43Z"/><path class="cls-1" d="M677.24,41.73a11.3,11.3,0,0,0-.29-1.38A7.65,7.65,0,0,0,677.24,41.73Z"/><path class="cls-1" d="M114.24,12.52c-.39.05-.72.1-1,.16l-1.6.51C110.83,13.67,112,13.93,114.24,12.52Z"/><path class="cls-1" d="M594.23,91.94h0S594.23,91.91,594.23,91.94Z"/><path class="cls-1" d="M590.23,51.36l-.12.22a10.5,10.5,0,0,0-.39,2.11C589.86,52.9,590,52.14,590.23,51.36Z"/><path class="cls-1" d="M403.22,134.72c.06,0-.11-.29-.11-.31S403.22,134.71,403.22,134.72Z"/><path class="cls-1" d="M584.72,98.05c0-.26-.15-.35-.29-.38s0,.14,0,.2C584.58,98,584.73,98.1,584.72,98.05Z"/><path class="cls-1" d="M845.74,92l-.07-.15A.3.3,0,0,1,845.74,92Z"/><path class="cls-1" d="M843.58,90.83a5.69,5.69,0,0,1-.55-.23S843.6,90.82,843.58,90.83Z"/><path class="cls-1" d="M843.58,90.84a4.68,4.68,0,0,1-.56-.23S843.59,90.83,843.58,90.84Z"/><path class="cls-1" d="M842.47,90.4a2.72,2.72,0,0,1-.38-.16A2.72,2.72,0,0,1,842.47,90.4Z"/><path class="cls-1" d="M107.29,41.81c0,.06-.12.09-.18.13Z"/><path class="cls-1" d="M100.9,7.87l-.41.12Z"/><path class="cls-1" d="M402.39,132.82s-.17-.32-.11-.32S402.46,132.84,402.39,132.82Z"/><polygon class="cls-1" points="576.6 93.96 576.59 93.96 576.6 93.93 576.6 93.96"/><path class="cls-1" d="M575.39,87.19s0,0,0,0Z"/><path class="cls-1" d="M574.77,89.05c0,.1,0,.19,0,.31S574.74,89.12,574.77,89.05Z"/><path class="cls-1" d="M627.28,106c.31-.28.65-.56,1-.83Z"/><path class="cls-1" d="M581.11,97.58v0a1.6,1.6,0,0,0,.06.43c-.06-.25-.09-.36-.09-.37h0C581.06,97.72,581.39,99.36,581.11,97.58Z"/><path class="cls-1" d="M796.91,91.17c-.34,0-.65.08-.89.13Z"/><path class="cls-1" d="M810.56,105.85c0,.06,0,.12,0,.14A1.13,1.13,0,0,0,810.56,105.85Z"/><path class="cls-1" d="M1083.26,120.2l.86,0A2,2,0,0,0,1083.26,120.2Z"/><path class="cls-1" d="M546.91,144.8h-.16A.49.49,0,0,0,546.91,144.8Z"/><path class="cls-1" d="M679.71,39.62h0S679.72,39.58,679.71,39.62Z"/><path class="cls-1" d="M854.35,122.65c.49-.26,1-.53,1.36-.79C855.13,122.17,854.69,122.43,854.35,122.65Z"/><path class="cls-1" d="M871.78,120.4c-.2.21-.39.41-.6.61C871.46,120.74,871.64,120.56,871.78,120.4Z"/><path class="cls-1" d="M570.52,123.77l-.67-1.06Z"/><path class="cls-1" d="M567.14,133.53l-1.16.1Z"/><path class="cls-1" d="M663.91,71.64c.06-.27.12-.54.18-.78a18.34,18.34,0,0,0-1.16,1.58C663.27,72.18,663.59,71.92,663.91,71.64Z"/><path class="cls-1" d="M566.55,82.39c-.1.41-.17.82-.25,1.23C566.86,83.78,566.43,82.77,566.55,82.39Z"/><path class="cls-1" d="M973.67,131.84a2.32,2.32,0,0,0,1-.25A3.45,3.45,0,0,0,973.67,131.84Z"/><path class="cls-1" d="M999.82,113.28c1.22-.91,2.44-1.83,3.62-2.79C1001.87,111.7,1000.71,112.56,999.82,113.28Z"/><path class="cls-1" d="M1017.24,95.69c0-.32,0-.67-.11-.64Z"/><path class="cls-1" d="M915.93,92.24a11.65,11.65,0,0,0-.51-3C915.58,90.74,915.29,92.09,915.93,92.24Z"/><path class="cls-1" d="M800.66,104.57l-.56.58A3.92,3.92,0,0,0,800.66,104.57Z"/><path class="cls-1" d="M913.65,85.94a8.58,8.58,0,0,1,1.77,3.25A4.23,4.23,0,0,0,913.65,85.94Z"/><path class="cls-1" d="M1083.58,122.72c0-.08,0-.14.12-.19l-1.3.23Z"/><path class="cls-1" d="M1085,122.29a3.39,3.39,0,0,0-1.3.24Z"/><path class="cls-1" d="M1087.72,121.78l-2.72.51A7.28,7.28,0,0,0,1087.72,121.78Z"/><path class="cls-1" d="M1026.89,128.74l-.36.42A.55.55,0,0,0,1026.89,128.74Z"/><path class="cls-1" d="M1017.06,129c2.27-.14,6.58,1.41,9.47.21C1025,129.81,1019.28,128.27,1017.06,129Z"/><path class="cls-1" d="M997.65,103.67a14.92,14.92,0,0,0-1.41,3.37c.92-1.4,1.63-2.2,1,.58,2.89-4.73-1.12-2,2-6.14A12.87,12.87,0,0,0,997.65,103.67Z"/><path class="cls-1" d="M938.82,109.94l-.32-1.07C936,111.17,938.73,109.2,938.82,109.94Z"/><path class="cls-1" d="M906.5,120a18.52,18.52,0,0,1,1.65-4.26A14.71,14.71,0,0,0,906.5,120Z"/><path class="cls-1" d="M832.43,85.43c.34-.58-4-2-4.1.09A11.28,11.28,0,0,0,832.43,85.43Z"/><path class="cls-1" d="M719,119.14a18.69,18.69,0,0,0,4.63,4.56,11,11,0,0,0-2-2.28A15.83,15.83,0,0,0,719,119.14Z"/><path class="cls-1" d="M577.9,115.43a11.39,11.39,0,0,0,2.05,4,16.35,16.35,0,0,1-1.06-2Z"/><path class="cls-1" d="M533,116.58l-2,1C532.39,117.93,539,118.09,533,116.58Z"/><path class="cls-1" d="M524.58,113.9c-3.3,0-12.07-2.48-10.85,1.39C517.41,112.49,536.84,117.69,524.58,113.9Z"/><path class="cls-1" d="M379.15,96.09c.15.41.42.92.73,1.64-.12-.29-.23-.61-.36-.87Z"/><path class="cls-1" d="M340.62,104c.72-.9.89-1.38.83-1.5C340.89,103.43,340.36,104.14,340.62,104Z"/><path class="cls-1" d="M486.53,114.45c-.7.19-1.73-.1-2.19.43A16.66,16.66,0,0,0,486.53,114.45Z"/><path class="cls-1" d="M431.55,92.69q-1.32-.21-2.58-.3A4.32,4.32,0,0,0,431.55,92.69Z"/><path class="cls-1" d="M472.34,111.35l1.45-.33Z"/><path class="cls-1" d="M390.9,87.93a1,1,0,0,0-.51-.37C390.39,87.7,390.59,87.82,390.9,87.93Z"/><path class="cls-1" d="M58.32,67.71c0,.09.1.08.14.13C58.6,67.54,58.61,67.41,58.32,67.71Z"/><path class="cls-1" d="M281.05,138.92l.15,0C282.1,138.83,281.59,138.86,281.05,138.92Z"/><path class="cls-1" d="M483,114.83c-.69.06-1.4.13-2.1.17A18.73,18.73,0,0,0,483,114.83Z"/><path class="cls-1" d="M299.91,52.65c.11,0,.38-.07,1.06-.56A3,3,0,0,0,299.91,52.65Z"/><path class="cls-1" d="M327.84,27a4.05,4.05,0,0,0,.31.36A4.34,4.34,0,0,0,327.84,27Z"/><path class="cls-1" d="M328.15,27.31c.16.22.29.44.6.81C328.91,27.68,328.41,27.71,328.15,27.31Z"/><path class="cls-1" d="M314.51,60.3l-1.29,1.81A4.83,4.83,0,0,0,314.51,60.3Z"/><path class="cls-1" d="M148.1,58.14a7.22,7.22,0,0,1-2.18.9C147,59.05,142.62,64.29,148.1,58.14Z"/><path class="cls-1" d="M484.28,114.25a1.89,1.89,0,0,1-1.28.58C483.43,114.74,485.14,114.79,484.28,114.25Z"/><path class="cls-1" d="M337.36,33.07c1.12-3.67.93-8.94-2-12C338.21,24.24,338.45,29.06,337.36,33.07Z"/><path class="cls-1" d="M42.39,152.58l-1.76.16A6.47,6.47,0,0,0,42.39,152.58Z"/><path class="cls-1" d="M325.47,57.74l2.82-4.11C327.3,54.82,325.63,56.08,325.47,57.74Z"/><path class="cls-1" d="M122.75,71.82l-1.13.61Z"/><path class="cls-1" d="M81.3,21.3s0,0,0,0S81.3,21.31,81.3,21.3Z"/><path class="cls-1" d="M300.05,142.79l-.6.28Z"/><path class="cls-1" d="M66,149.25c-.44.17-1,.37-1.55.63Z"/><path class="cls-1" d="M283.32,139.28a9.64,9.64,0,0,0,1.32-.26Z"/><path class="cls-1" d="M310.13,82.75l.48-.85A8.08,8.08,0,0,0,310.13,82.75Z"/><path class="cls-1" d="M507.72,112.72a2.14,2.14,0,0,0-.85-.14Z"/><path class="cls-1" d="M117.25,11c.29-.07.45-.14.83-.21C117,10.43,115.29,11.42,117.25,11Z"/><path class="cls-1" d="M24.77,150.37l1.27.48C26.47,150.36,24.9,150.49,24.77,150.37Z"/><path class="cls-1" d="M433.59,100.61a1.48,1.48,0,0,0-.4-.7A2.45,2.45,0,0,0,433.59,100.61Z"/><path class="cls-1" d="M404.24,136.07a3.76,3.76,0,0,1-1.49-1.36C403.12,135.57,403.59,136.2,404.24,136.07Z"/><path class="cls-1" d="M405.17,135.46a1.83,1.83,0,0,1-.93.61C406.5,137.09,408.35,134,405.17,135.46Z"/><path class="cls-1" d="M335.35,21a6.35,6.35,0,0,0-1-1A8.88,8.88,0,0,1,335.35,21Z"/><path class="cls-1" d="M350.48,98.68a52.13,52.13,0,0,0-3.16,4.47A22.43,22.43,0,0,0,350.48,98.68Z"/><path class="cls-1" d="M511,114.79c-.9,0-1.81,0-2.72.09A8.52,8.52,0,0,0,511,114.79Z"/><path class="cls-1" d="M474,115.33l-.32.44A.55.55,0,0,0,474,115.33Z"/><path class="cls-1" d="M469.28,116.11a12.43,12.43,0,0,0-4.86.6c2.61-.55,6.81.48,9.24-.94C472.94,116.16,471.16,116.13,469.28,116.11Z"/><path class="cls-1" d="M347.84,133.78v-1.12C344.93,134,348,133.07,347.84,133.78Z"/><path class="cls-1" d="M316.36,54.85l1.59-.26C318.85,52.49,317.83,51.4,316.36,54.85Z"/><path class="cls-1" d="M224.47,142.76a38.61,38.61,0,0,0-5.36-2.06C220.78,142,223.22,142.9,224.47,142.76Z"/><path class="cls-1" d="M61.43,140.11l2.45-1.05q-2.35.8-4.71,1.51Z"/><path class="cls-1" d="M288.14,21.4c.17-.22.25-.81-.09-.77C288,21,287,21.85,288.14,21.4Z"/><path class="cls-1" d="M286.31,19.21l.13-.1A.49.49,0,0,0,286.31,19.21Z"/><path class="cls-1" d="M286.61,19.71c.34,0,.48.44.34.78,2.34-.67-1-.8-.64-1.28C285.26,20.11,284.88,22.16,286.61,19.71Z"/><path class="cls-1" d="M231.55,10.7l.2.07C231.67,10.68,231.6,10.62,231.55,10.7Z"/><path class="cls-1" d="M254.82,13.26l-.51-.35C254.25,13.23,254.56,13.17,254.82,13.26Z"/><path class="cls-1" d="M281.65,20.52a.69.69,0,0,0,.33-.2C281.82,20.37,281.66,20.32,281.65,20.52Z"/><path class="cls-1" d="M264,12.78l-.34.37C263.91,13.23,263.91,13,264,12.78Z"/><path class="cls-1" d="M270.44,13.75c-.15-.06-.31.77-.41,1.13C270.3,14.26,270.56,14.41,270.44,13.75Z"/><path class="cls-1" d="M258.81,12.25a.75.75,0,0,0,0,.3A1.14,1.14,0,0,0,258.81,12.25Z"/><path class="cls-1" d="M85,55.28l-.09-.12C85,55.25,85,55.31,85,55.28Z"/><path class="cls-1" d="M225.31,9.54h0C225.5,9.46,225.41,9.47,225.31,9.54Z"/><path class="cls-1" d="M168.19,16.86c-.16-.31.62-1.45-.28-1.78C168.7,15.69,167.06,16.24,168.19,16.86Z"/><path class="cls-1" d="M211,10.57a.8.8,0,0,0-.16-.37A1.58,1.58,0,0,0,211,10.57Z"/><path class="cls-1" d="M221.63,11.23l-.27-.11A.53.53,0,0,0,221.63,11.23Z"/><path class="cls-1" d="M205.21,11.56c-.07-.08-.37,0-.21.11C205.05,11.58,205.11,11.53,205.21,11.56Z"/><path class="cls-1" d="M199.83,12.07l-.3-.1C199.6,12.12,199.68,12.15,199.83,12.07Z"/><path class="cls-1" d="M281.74,20.06c-.07.2-.14.29-.24.32C281.72,20.45,281.78,20.2,281.74,20.06Z"/><path class="cls-1" d="M205.42,18.27l-.9-.07A2.86,2.86,0,0,0,205.42,18.27Z"/><path class="cls-1" d="M132.49,32.24l-.16.16C132.41,32.4,132.47,32.35,132.49,32.24Z"/><path class="cls-1" d="M201.22,18.15l.63.32C201.65,18.19,201.29,17.68,201.22,18.15Z"/><path class="cls-1" d="M130.87,33.27l-.08-.2C130.77,33.19,130.63,33.36,130.87,33.27Z"/><path class="cls-1" d="M264.31,17.29a.52.52,0,0,0-.11-.23A.38.38,0,0,0,264.31,17.29Z"/><path class="cls-1" d="M268.2,17.68l.53.37A2,2,0,0,0,268.2,17.68Z"/><path class="cls-1" d="M271.22,18.48a1.25,1.25,0,0,0,.11-.35Z"/><path class="cls-1" d="M221.85,16.88l-.12,0C221.45,17.08,221.64,17,221.85,16.88Z"/><path class="cls-1" d="M236.62,15.12a2.4,2.4,0,0,1-.49.38C236.4,15.58,236.6,15.6,236.62,15.12Z"/><path class="cls-1" d="M205.52,18.28s-.09,0-.1,0Z"/><path class="cls-1" d="M235.45,15.47a.59.59,0,0,0,.68,0A.89.89,0,0,0,235.45,15.47Z"/><path class="cls-1" d="M284.45,21.23c.09-.21,0-.09-.13-.07Z"/><path class="cls-1" d="M284.5,21.1l.18-.06C284.61,21,284.54,21,284.5,21.1Z"/><path class="cls-1" d="M285.07,20.9l-.39.14C284.8,21.06,284.94,21.12,285.07,20.9Z"/><path class="cls-1" d="M280.3,20.25a.86.86,0,0,0,.1-.29Z"/><path class="cls-1" d="M279.17,19.82c.24.09.95,1.15,1.13.43C280,20.66,279.54,19.35,279.17,19.82Z"/><path class="cls-1" d="M275.81,14.81c-1.18-1.17.16.77-1.19.42C276,16,275,15.2,275.81,14.81Z"/><path class="cls-1" d="M271.52,13.65c-.4.25-.49.31-.11.65C272,14.22,271.47,13.83,271.52,13.65Z"/><path class="cls-1" d="M247.69,12.33l.09-.76C247.34,11.66,247.76,11.87,247.69,12.33Z"/><path class="cls-1" d="M243.64,15.9c-.61.15-.7.23-.23.7Z"/><path class="cls-1" d="M240,10.7a3.09,3.09,0,0,0,.74-.26Z"/><path class="cls-1" d="M200.51,11.15l.2.94C201,11.9,201,10.83,200.51,11.15Z"/><path class="cls-1" d="M183.37,13.83c-.25-.44-.77-.67-1-.17C182.76,13.67,183.19,14,183.37,13.83Z"/><path class="cls-1" d="M132.23,24.67c.28,0,.45-.26.54-.47Z"/><path class="cls-1" d="M595.53,95.28l0-.27C595.43,93.53,595.48,94.8,595.53,95.28Z"/><path class="cls-1" d="M595.21,93.74c0-.12.1.31.13.68C595,91,595.27,97.53,595.21,93.74Z"/><path class="cls-1" d="M591.11,92l-.09-.3C591,92.05,591.07,92,591.11,92Z"/><path class="cls-1" d="M594.82,95.64a1.79,1.79,0,0,0,0-.27A.62.62,0,0,0,594.82,95.64Z"/><path class="cls-1" d="M592.09,91.13c0-.08,0-.26,0-.41Z"/><path class="cls-1" d="M593,92.07a8.06,8.06,0,0,0-.08-1.17S592.94,91.71,593,92.07Z"/><path class="cls-1" d="M591.49,91c0-.12,0-.23,0-.3Q591.48,90.87,591.49,91Z"/><path class="cls-1" d="M587.3,89.68c0-.1,0-.08,0,0Z"/><path class="cls-1" d="M585.68,90.7c0-.08,0-.19-.06-.36C585.64,90.48,585.66,90.59,585.68,90.7Z"/><path class="cls-1" d="M585,91.62c0-.08,0-.13,0-.1C585,91.39,585,91.59,585,91.62Z"/><path class="cls-1" d="M594.79,95.53a1,1,0,0,0,0-.36A3.47,3.47,0,0,1,594.79,95.53Z"/><path class="cls-1" d="M584.93,97.44a5.75,5.75,0,0,0,.62.66Z"/><path class="cls-1" d="M584.5,97.48c0-.13.6.32.62.2C585.15,97.79,584.45,97.19,584.5,97.48Z"/><path class="cls-1" d="M595,93.89s0-.08,0-.07Z"/><path class="cls-1" d="M593.49,95.46c0-.15,0-.26,0-.37Z"/><path class="cls-1" d="M587.59,97s0,0,0,0C587.56,97.23,587.57,97.16,587.59,97Z"/><path class="cls-1" d="M589.18,94.89c0,.15,0,.3,0,.4S589.23,95.37,589.18,94.89Z"/><path class="cls-1" d="M589.08,95.28c0,.17.07.13.08,0S589.09,95.15,589.08,95.28Z"/><path class="cls-1" d="M595.18,95.72c0-.06,0-.1,0-.14S595.15,95.7,595.18,95.72Z"/><path class="cls-1" d="M595.17,95.58v-.1S595.17,95.49,595.17,95.58Z"/><path class="cls-1" d="M595.18,95.48s0,0,0-.22Z"/><path class="cls-1" d="M594.63,95.34l0,.31C594.65,95.59,594.64,95.49,594.63,95.34Z"/><path class="cls-1" d="M594.48,95.45c0,.06.16.64.19.44C594.72,96.05,594.5,95.16,594.48,95.45Z"/><path class="cls-1" d="M593.56,91.14c-.25-1,.11.72-.07.6C593.81,92.36,593.44,91.12,593.56,91.14Z"/><path class="cls-1" d="M593.05,91.31a2.46,2.46,0,0,0-.06-.65A1.42,1.42,0,0,0,593.05,91.31Z"/><path class="cls-1" d="M590.2,91.58l-.07-.76A3.64,3.64,0,0,0,590.2,91.58Z"/><path class="cls-1" d="M589.19,90.17c0-.32,0,.15-.05.18Z"/><path class="cls-1" d="M1071.83,123.06c2-.16,6.06-.7,9.33-1.26a9.73,9.73,0,0,1-4.76-.47c-9.54,1.68-37.7,5.49-39.56,5.51l1.06-.3c-3.31.52-9.51.31-4.28-1.48-6.11,0-7.77-.41-12.55.12.89-.36-.77-1.17,2-1-6.19-1-10.19.59-14.93-1l-1.82-.36c-5.08-.36-14.69-2.59-6.53-9.6l-.29.22c2.26-1.72,4.42-3.56,6.58-5.41-.57.44-1.19.85-1.79,1.27,2.68-6.23,7.92-9.45,11.35-15.37-1.86,4,2.44,0,3.75-1.07.61-4.16-4.24-4.15-6-4.65-30.85,7.37-10.81,25.08-35.1,34.85,1.87.49-16.76,12.67-8.09,4.74-1.5.7-3,1.57-4.59,2.48a2.55,2.55,0,0,0,1.11-1.17L965,130.66c.14,0,.29-.13.44-.2-6.27,3.69-12.82,8-18.74,5.12-.64,7.6-5.3-6.17-1.2-.51a6.66,6.66,0,0,1-.62-3.82,10.72,10.72,0,0,0,1.16,3.06c-1.51-3.24.94-9.52.24-2.57.54-8.15,5.93-13.44,7.57-20.29.9-.51,11.49-14.58,7.31-11.42l.46-.54a1.08,1.08,0,0,0,.32-.26l-.3.23c31-36.3-21.18,10.85-30.73,17.75,3.34-3.71-1.69.63,3.55-3.65-4.84,3.52-7.49,5.22-11.1,9.42.28-2-5.62,2.72-6.63,3a30.14,30.14,0,0,0,3.9-1.36c-17.79,8.73-17.5-6.78-11.91-11.75C902,115.51,928.29,102.35,919.4,85c0,3.47-6.31-4.53-8.94-3.8-6.83-2.58,4.82-2,6.26.33.62-3.16-12.24-2.46-13.77-2.23-3.08,1.62-2.79,2.14.29.86-6.81,2.57-10.24,7-15.86,12,1.08-.77,2.34-1.21,1.42-.3-7.78,7.44-2.69,3.67-8,10.55-3.46,2.92-.27-2.32-5,4-3.54,3.24-1.61-.06-.66-1.76-4,6.07-9.31,9.24-12.29,11.51.83-.81,1.58-1.75,2.37-2.62a28.18,28.18,0,0,1-4,3.79l2.14-.54c-1,1.23-4.86,2-3,3.08,1.14,2.38-8.79,6.75-9.53,5.72,5.4-1.38,1.39-1.31,3.53-3-.47.4-4.42,2-2.44.68-5.32.7-7.8,5.23-11.63.57,1.32,3.31-3.42-.47-4.7-3.42,0,2.31-2.22-1.62-.13-3.4a6.83,6.83,0,0,0-.1,1.62c2.62-7.29,25.3-35.56,6.1-28.7a6.78,6.78,0,0,1,1-1.17c-9.77,5.12-11.61,25.72-22.62,30.69,8.18-3.14-9.15,6.06-13.16,7.33-6.41,5.07-16.07-1.91-7.93-8.59-.07,1.92.31,2.16-.22,3.26,1.89-2.91,4.93-6.44,7.57-9.68l.56-.5-.54.47c2.87-3.53,5.26-6.73,5.13-8.45C843.6,85,820.16,82,794.88,83.23c.34-.22.09-.36.79-.36-8.23-.17-5.08,2.48-14.09,2.6-2.48-.28-1.27-.64.2-.92,8.48-4.19-25.24,4.43-19.43,2.2-11,2.71,25,10.63-7.18,35.65,3.05-3.22-.15-3-.42.23-3.34,3.8-16,4.22-4.72.52-23.61,7.45-46.36,2.19-19-23.27-6.39,4.92,3.59-5.36,1.58-1.83C740.56,86,755.46,71,760.17,57.73l-.25.67c42.62-75.83-56.42-32.73-59.3,60.3-26.54,20.92-69,37.24-102.28,19.21-.41,2.71-15.77-5.23-4.79-6.17-4.94-1.44,4.72-4.51,4.7-4.11a5.42,5.42,0,0,0-2.43,1.77l2.8-1.66c3.22.12-3.86,2.18-3.47,3.13,3-1.63,22.92-13.16,12.67-6.1-1.89,1-3.19,1.72,0,.86-2.34.92-4.65,1.9-7,2.74,6.21-.4-4.23,1.7,1.53,1.67,13.56-4.25,17.95-14,29.49-18.22,4.41,1.82,15.79-18.47,14.41-10.6,6.34-5.53,4.73-7.29,10.53-11.48-.22,1-4.35,4.9-3.86,4.76,24.74-20.26,51.51-69.28,21.71-89.38-10-6.95-27.1-5.71-38.85-2.79l1.84-.91C630.91,2.8,629.69,6.62,623,9l1.14-.84C561.82,40.44,574.56,98,556.59,91.5c2-.27,4-.59,5.94-.9-8.56-.15-14.49,3.87-19.44,1.76-3.19,1.13,3.3,1.33-2.07,2.38-2-1.06-9.85.16-4.69-1.41-12,2.73-22.36.89-32.94,2.43,4.33-2-9.89-.87-12.43-1-.49.64,1,6.72-.52,5,4.2,9.67,5.3,13.55-6.77,13,.87-.63,1.75-1.2,2.63-1.78-1.46.88-12.26,2.66-5.89.13-5.75.18-8,.2-12.58,1.15.85-.45-.92-1.07,1.93-1.16-5.53-.42-11.46,2.87-16.26,2.7l.65-.23c-8.27,1.46-4.87,6.84-15.2,3.35,0,1.65-3.85,2.53-3.89,1.77-2.08,2.67-5.68,2.43-10.5,4.54a16.19,16.19,0,0,1,7.11-3.6c-2.72.28-1.77-.61,0-1.2l-.86.18c23.59-16.92-6.52-25.65,4.42-23.6-4.49-2.71-31-9.33-29.13-4.52,2.65,1.6-8.89,1.8-2.54-.26a18,18,0,0,1-4.2.07c1.17-.29,2.35-.54,3.55-.81-4.76.7-10.2-.65-3-.6-8.87-1.47-12.56,1.26-20.48-.07-5.22.77-3.71,4.47-10.06,4l2.68.64c-.15,0-.2,0,.15,0,3-3.85,7.69,5.24,6.36,1.51.16.24.31.47.45.71a.85.85,0,0,0,.12.23,1.56,1.56,0,0,1-.06-.15,17.63,17.63,0,0,1,1.46,3,7,7,0,0,0-.67-1.17,7.47,7.47,0,0,0,.92,1.91c5.71,18.28-28.72,34.81-42.62,37.54,4.38-1.76-1.35-.14,4.58-1.62a110.64,110.64,0,0,1-13.25,1.65c1.34-.72-3.44-2.35-3.57-3.67a5.35,5.35,0,0,0,1.39,2.56c-7.49-6.13,2.66-10.95,7.88-16.7l-2.43,1.32c4.31-3.93,6.94-8.45,10.49-11.92-.73,1.25-1.53,2.46-2.34,3.66,2.29-2.67,4.63-5.72,6.63-8.59-1.21,1.35-2.93,3.21-4.22,4.47,2.94-5.2-1.63-.89,3.14-6.43-1.25,1.33,5.59-6.45,4-3.23,1.48-1.64,2.3-2.67,1.58-3.46,2.33-5.57,3.38-6.34-2.61-2.69-1.45-2.68-2.54,3-6.07,3.12-1-4.21-11.83,7.83-13.1,10.68,1.94-4.4-5.86,5.88-5.27,5.32,2,.29.34,1-1.19,3.85a13,13,0,0,1,.61-1.93c-3.66,5.29-4.37,14.65-12,15.14-.18-.22-.58,0-3.74,2.22-4.34,1.91-1.48-.61-.08-1.85-4.51,3.63-10.21,5.19-15.45,6.81,1.06-.59,2.14-1.14,3.19-1.75a40.66,40.66,0,0,1-5.2,2.39c.73.07,1.49.09,2.25.11-7.08,1.51-1.57,1.11-5.49,3.92-1.94.15-7.35,1.91-8.61,0,4.55,1.1,1.82-.63,4.06-1.27-.45.21-4.35,0-2.27-.36-26.79-5.67.78-23.29,11.89-37-.56,1.08-.28,1.37-1.58,2.8,9.34-10,20.53-22.91,23.72-30.8,7.69-15.65,25-32.3,20.53-50.16,1.88.82-3.4-4.88-1.23-3.68-3.34-3.71-13-3.06-14.33.9-57.41,47.4-42.38,64.11-63.93,105.21-.39-.32-1.83.61-1.37,1.66-.14,2.7-10.71,7.11-9.87,5.59C229.34,143.74,206,152.55,219.59,122c-1.06,3.31-4.67,10.71-3,14.18-.94-2.35,2.64-9.74,3.26-11.68a30.85,30.85,0,0,1-2.06,4.15c8.46-18.12,17.72-33.55-10.71-36.79a2,2,0,0,0-.67,1.25c0-.08,0-.14,0-.22-1.16-.43-3.16-1.79-4.63-.49,1.27,1.53,3.95,3.84,4.53,1.87,0,2.42.69,5.35-2.52,4-2.5,5.36-5.69,12.09-9.7,17.24,5.11-3.78-4.83,10.53-2.93,7.58l-.61.47c-.35,0,.44-1.43.76-2.43.38-1.75-.64-.79-2.1.36,3.2-2.1-2.3,4.48-.16,3.21-3.84,2.91-10,7.37-5.63,2.13-4.8,2.76-7.25,4.34-12.52,7.53,1.91-.56,3.8-1.23,5.65-2-8.3,6.3-8.51,2.8-17.75,7.15,1-.56,1.93-1.05,2.86-1.66-4.82,1.94-12.54,4.7-13.59-2.59.39-1,1.05-1.65,1.12.17,9.51-44.14,1.56-27.08-17.55-3.91.51-.78,1-1.61,1.43-2.41-5.84,6.65-28.38,26.41-15.18,6.51,8-8.86,20.59-16.7,28.68-25.94C134.81,95.47,108.68,129.2,91.76,130c4.54.64-14.9,7.83-9.07,4.72C57.73,142.31,16,155.12,9.21,116l1.26,1.85C-1.43,92.53,27.83,61.48,39.8,49.05c.79-3.17,10.42-12.88,7.65-8.88,4.73-3.12-1,0,4.86-3.59C82.3,16.32,84,22,111.61,13.19a5.58,5.58,0,0,1,1.6-.51c2.07-.67,4.27-1.42,6.63-2.26-2,.67-7.81,1.36-11.24,2.28,22.71-10.58,65.34,6.69,24.74,11.21-.45,4.1-10.82.63-10.7,6.26-.92-2.21-7.93.55-6.66,1.82-1.45-1.29-2.78,3.59-3.13,2.21-1.64.2-1.44,2.75-3.61,1.36.36.76-.79,1.82-.59.62-1.47,0-1.66,2.28-2.81,1,2.94-1.16.7-.34.64-2.35-.55,2.08-1.44,2.47-3,2.62h-.16l.06.06c-.12.09-.5.26-.46,0,0,0,0,0,.06-.05-3.91,0-4.28,2.08-8.23,2.68.16.24,0,.81.5.75-8.09,3-8.05,5.69-13.43,6.45-2.26,2.6,3.38-.46-.44,3-2.2.15-8.86,6-5.07,1.6C67.14,61.72,59.93,65.32,53,76.27c-15.89,7.62-7.71,32.48,13.79,27.12a5.49,5.49,0,0,1-2.26.53c6.66,3,26.46-12.27,20.08-3.6,2-1.41,7.88-3.64,6.11-3.92,7.44-1.15,5.59-.9,12.48-5.18,6.09-2,2.39.87,8.09-2.86.89-.29,1.11-.2,1,.08,1.29-2,1.84-4.4,5.1-4.32C128.89,79.31,137,67.78,145.9,59c-5.12.88,2.34-6.13,2.43-5.78a6.21,6.21,0,0,0-1.4,2.67c.5-1.46,4.07-4.94,1.75-1.3-4.76,7.64,6.07-8.5,7.61-11,4.84-5.86-5.24,8.68-.33,3.39-1.43,1.74-3.48,4.1-5,5.69,5.34-3.16-3,3.49,2.12.79,10.63-7.9,7.49-24.68,12-30.35C178.67,19.13,191.69,20.74,203,17c2.74,1.44,20.06.56,20.47-2.67.35,5.59,6.87-1.84,8.61,2.63,1.68-1.71,1.55-1,3.32-1-1.33-.64-.08-2.6,1.24-.82,2-1.83.47,2.37,3.39-.13-.65,2.08.62-.94.49,1,1,.18-.27-1.43.9-.78-.4,1.48,5.18-1.47,2.54,1.51,5.75-2.57,8.5,1.39,12.54-.83,1.42,2.47,5.79-1.22,5.32,1.48,2.81.18.13-1.67,2.24-1.86-.87.39.35,2.25.26.86.69,1.31.27-1.37,1.3-.43-.32.84.82-.38,1.21-.07.1.82-.48.32-.58,1,3.16-1.81-.17.35,2,.8,1.34,1,2.43-3.31,3.58,1.31,2.74.64,8.61-2,9.85.71,1-1,1.25-.33.35.62.95-.45,2.84-1.1,1.1.26.54,0,2.64-.29,1.86-1.12,0,1.7-1.95.15-.58-.12,0-2.28-3.7,1.37-1.89-1.49-.73.94-1.76.77-.71-.32-.35-.46-2.35-.37-1.19-1-3.82-1.81-3.18,4.11-3.9-1-.77,2.17-2.8-.16-3.22.92-1.09-2.42-4.18-.37-7.77-2.93-2.32,2.4,0-.69-5.18-.31.74,1.3-1,3.94-.18,1.34-.88.58-.32-.24-.05-.53-1.26.61-.3-.24-1.42-1.39,0,2.09-2.89-1.74-3.8.86h0l0,0v0c-5.37.39-12-1.44-11.36-2.39-3.59-.8-3.65,2.41-5.63-.42-1.26.5-4.43,3.69-3.1,1.27a.25.25,0,0,0,.22-.21,1.19,1.19,0,0,0-.16.08c.12-.21.26-.45.45-.74-2.12.14-3.2-.75-5.26,1.18-.21-1.85-3.26-2-2.45-3-.73.54-3.37,4.3-1.82.59-2.29-1.19-1.16,1.63-2.55.19.2.59-1.39,1.16-1.74,1.24.53,3.08-4.49-3.95-5.24-.1l1.61-.52c-2.05,2.28.38-.5.09,1.71-5.08,0,1.35-3.18-5.65-1.3,1.24,1.09-1.39.74-1.42-.45-.43.12-1.38,1.6-1.9.43-5.45,3.5,1.15-2-4.75,1.24,0,.29-.66.44-.24,1.07-5.91-2.31-7.78.73-10.91-1.13-2.3.06-8,4.83-5.94,1.07-2.3-2-4.27,4-5.51.73a12.88,12.88,0,0,1-2.38,1.73c1.2-1.57,2.53-3.14.08-1.2,1.07,2.79-10.26-3-11.17,2.42-2.33-.4-1.29-3.36-3.61-1.85,2.57,2.11-1.11-.26-1.77.66.81-.68-19.63-10.45-11.37-9.48C133.2-5.78,75.88,7.5,50.82,27.55c-9.18,7.83-18.21,17.51-26.94,25.57l1.06-1.67c-4.55,4.2-4.59,9.08-9,13.3l.65-1.24C-11.19,93-4.63,153.41,40.63,152.74c-9.9-1.56,12.08-1.23,13.43-.6,2.95-.38,20.11-6.4,12-2.89a174.13,174.13,0,0,0,25.68-8.18c-1,3.33,13.19-6.06,15-5.36-7.59,16.56,16.23,22.58,21.35,8.73,0,.93,6.45-4.09,5.66-2.75,3.92-4.76,5-3.46,6.08-.63,16.09,26.84,69-13.21,71.17-39.64.57.44,1.05,1,1.49,1.3-1.35-1.63-1.73-1.14.49-1.11,16.19,2.75-1.4,18.25-4.15,26.37-8,29.48,25.81,28.25,40.92,11.2l-2.29,3c9.73-5.79,14.56-17.4,20.6-4.11-4.47.33,9.22,9.07,1.95,7,2.91,1.56,9.05,2.22,4.31,2.38,4.16,2.92,18.06-3,12.82.47,4.58-1.88,8.76-4.29,13.58-6.09-.22.32.36.36-.62.87,7.39-1.45,16.31-15,19.74-8.91-3.28-9.41,4.64,7,5.34,7.11-1.54.36-5.3-5.81-5-3.62,9.52,12.62,28.22,1.31,38.75-4-6.26,1.71,9-4.94,10.61-7.65,1.67,2.75,18.28-14.8,16-23.56a13,13,0,0,1,.55,1.87c1.35-6.6-4-9.36-7.77-9.84,13.68.37,27.84-3.8,41,1.37-8.4-.78,6.94,1.39,9,2.17-6-3.68-.69-2.52,4.23-.7-7.68,1.25,20.08,3.92-8.28,24.07,1.48-1.48,3.74-3.43,5-5.06-4.83,2.41-6.74,4.64-11.32,6.9.67-.32,1.24-.63,1.76-.92-1.55.92-3.12,1.8-4.72,2.6,5-1.31-6.13,6.13-9,6.5,5.94-5.25-.58-.5-4,1.07-.22-.67-.42-1.17-.65-1.2a11.46,11.46,0,0,0,1.47,3.7c-.23-.56-.43-1.2-.61-1.79,3.81,6.22,50.95-18.51,68.33-20.36,3.11.26-2.31,1.69-2.31,1.69A78.19,78.19,0,0,0,481.35,113c-.07,2.57,14.24-2.7,5.18,1.49,11.87-4.46,10.88,6.22,18.64,12a5,5,0,0,1-1.74-1.41c1.3,7.48,23.23,11.61,18.14,13-9.09-1.15,6.55,2.92,5.76,1.33,3,3.86,30.17,3.2,19.58,5.36,7.11.41,2-4.25,10.19-2.45,13.91,1.78,18.7-11.52,32.52,2.47-.53,0-1,0-1.56,0,10.92,7.35,24.26,10.09,37.33,10.62-6.94-.7-.25-3.61,1.8-.67,2.5-.76-4-.57,1.11-1.46,3.2-.11,4.43,1.41.46,1.91,22.54,2.68,59.82-11.7,78.47-32.21,14,8.62,19.56,17.48,40.82,9a37,37,0,0,1-3.42,2.37c16.44-4.77,39.54-23.84,30.34-41.69,1.41.63,8.36-.88,8.42-1.67,2.49,1.91,14.93-1.61,13.52.12,1.41-.48,9.85.52,8.59-.79,4.88,1.58,12.64-1.69,9,3.43-4.64,0-9.69,8.16-11.91,10.63.68-1.53-3.2,2.6-2.5.74-3.65,4-6.5,8-5.18,7.9-18.14,12.21,2.47,31.75,17.53,20.74,7.31-2.09,13.21-13.31,17.42-8.51-3.88-6.48,4.5,5.88,9.82,5.15-3.48,2.83,12.54,1.39,5.84,4.26,2.84-.54,8.44-3.07,4.49-.5,4.33-.12,14.28-9.49,11-4.7,3.91-3.49,6.57-6.26,11-10-.1.36.37.25-.2.88,7.77-7.69,10.8-15.11,19.18-23.08-.23,3,7.48-4.94,8.89-6.27-.78.34-1.58.65-2.34,1,3.32-2.86,6.92-7.24,11.46-7.24a12.54,12.54,0,0,0-3.09,1.45c2.4-1.06,5-1.61,7.14-.06a5.42,5.42,0,0,0-3.76-1.65c4.64-3.13,8.79,2.86,6.67,7.66.7,8.69-11.28,12.3-13.35,21.64.74-4.61-4.4,7-3.68,7,1.75-.81.86,1.57,1,3.4,3.6,7.2,8,9.69,12.85,9.3-.27,0-.55.12-.83.16.65,0,1.34.05,2,0a3.3,3.3,0,0,0,2.87-1.09c10.32-3.71,22.15-17.33,32.73-25.69-4.17,3,0-1.93,3.66-3.54-.5.65-3,5.06-1.26,4.05-11.57,10.15-15.72,42,7.6,31.7-10.22,5.35,18.16-7.61,4.35-3.42a38.84,38.84,0,0,1,6.71-4.55c-4.53,3.19.74,1.29,3.12.57.74-1.66,14.31-12.32,14.64-11.24,1.26-2.24,2.6-4.9,3.78-2.29,6.45,14.2,39.36,4.47,29.07,8.77a52.37,52.37,0,0,0,13.33-.25c-.38,2.73,14.36-1.61,5.28,2.59C1043.19,129,1083,119.85,1071.83,123.06ZM341.45,102.52c7.75-4.67-.26,3.73-1.67,3.64C337.83,106.72,341.11,102.07,341.45,102.52Zm-7,4.59a22.16,22.16,0,0,1,5.72-4.1C339.49,103.85,334.14,109.11,334.49,107.11Zm0,1.41c-1.22,1.87.09.79,1.9-.93-1.95,1.87-3.55,3.48-5.11,5A21.08,21.08,0,0,1,334.48,108.52ZM153.81,25.67c5.72-3.31.3,9.32,1,10.59-3.29,4.27-.25-2.06-3.82,4.09l.31-1.29C136.3,88.58-8.06,132.12,82.4,56.68c.49-1.09,1.52-2.36,2.53-1.52-.34-1.17,1.56-1.76,2.56-.83-.3-1.5,1.37-1.64,1.79-2.85,0,.13,0,.38-.07.37,2.05.69.92-4.79,2.41-.71-.08-.62.55-1.15,0-1.6.82.32.57.06,1.32.75-.91-1.77,1.73-1.39,1.9-.59.06-1-1-2.7.91-.62.49-.55.06-1.93,1-1.51,15.36-6.91,22.83-13.3,34-14.5.56-2.45.65.53,1.54-.67-1.88-.93,1.61-1,1.65-.12,2.08-2.08,3.86-.54,8.79-3-1.16-.42-.56-2.37,0-.57-.95-2.36,1.13.2.95.53C147.09,29.11,152.74,24,153.81,25.67ZM90.38,11.17c.76,1.5-2.42.94-5.55,2C86.4,12.61,88.34,11.91,90.38,11.17ZM268.72,114.46c2.45-8.92,7.09-15.57,10.1-24.72-2.51,2.91-.71-1.42-.46-3.13-1.42,3.82-2.7,7.69-3.8,11.59.37-2.33.93-5.55,1.45-7.82-1.46,3.41-2.16,7.52-3.05,9.55.48-3.79.6-3.36-.75-1.94,5.85-14.06,12.89-22.77,20.88-37.26C287.38,64.54,315.55,33.6,322,27.12c-.45,1.72-.16,2.09-.79,2.95,3.46-3.15,9.2-5.48,8.72.36.38.2-.66,4.21.86,2C322.3,48,313.22,64.53,303.07,78.68c0-.45-.31-.25.4-1.11-4.83,5.11-1.71,6.34-7.65,12.19-4,2.84,2.63-4.23.36-2.26-4.1.61-7.91,10.2-12.36,12.31l.94-1.19c-5.69,5.42-10.71,11.92-16.58,17.66C268.34,115.68,268.52,115.07,268.72,114.46Zm-.34,12.91a3.39,3.39,0,0,1-.47-1C268.61,125.61,268.31,126.78,268.38,127.37ZM682.3,51.17c0,.81,1.34-2.17,2.22-4.11C684.48,47.72,681.44,56.09,682.3,51.17ZM573.22,132.65c-15.67,7.71-69,1.07-66.08-17.71l1.13-.06a5,5,0,0,0-1.12,0,10.9,10.9,0,0,1,.57-2.17c-5.61,4-7-7.8-9.37-11.84,22.33,3.58,38.64-3.26,57.37-1.94,8.72,2.15,12.66-5.53,10.34,12.19,0,3.56,9,19.5,4.46,12.64C571.68,130.35,578.68,132.23,573.22,132.65Zm8.85-9.49c-7.08-2.7-7.34-20.74-7.4-25.16h1.91c.15.57.31.1.38-.49h.15v.19c-.22,0,.66,1.34.76-.16l1.61,0c.08.15.14.18.17,0h.82c.21.25.42.41.58.11h0l0-.06s0,0,0-.06h.52c.65.51,1.57,1.77.87.75,0-.23,0-.54,0-.8h.12c0,.09,0,.19,0,.3a1.52,1.52,0,0,1,.13-.31c.27,0,.54,0,.81-.08.38.37.7,1,.79.48l-.27-.2a1.4,1.4,0,0,1,.29,0v-.23s-.2,0-.4-.07a.08.08,0,0,0,0,0c.31,0,.62-.11.93-.19.31.26.58.55.58.08,0,.65.3,1.64.18,0,.41,1.31,1.17-2.22.91.71.29-2.22,1.08.26.94-2.63l0,0c.47,4.26.44-2.17,1.2,1.55,0-.44.13-2.14.15-.86a2.86,2.86,0,0,0,0-1.16l.15,0,0,.1s0-.08,0-.11l.12,0c.08.47.16,1.53.24,0h0c.12,1.94,0-1,.15.91,0-1.57.11-.64.32-.1a2.38,2.38,0,0,0,.08.53l0-.4c.15.28.34.32.59-.61,0-.26-.06-.42-.07-.52l0,0c.08.27.2.75.21.39a5.82,5.82,0,0,0,0,.71c.34-1.18.79.59.65-1.09.48,2.29.36-1.29.77.62.14.3.1-.29.06-.8h.07c0,.16.06.33.09.56,0-.18,0-.36,0-.55h0c0,.23.05.18.05,0h.2v0l.18,0c.07.55.16,1.2.29,1.11,0-.58,0-1,0-1.23l.11-.1c.12.69.33,2.15.44,1.23,0,1.16.57-.38.6-2.38.12,1.35.22,1.92.42,1.21.06,2.42.19-1.12.2,1.19.35-2.22-.06.2,0-1.48-.22-1.71-.18.29-.29.2l-.07-1.25c0,2-.05-.19-.28-.61,0,.79-.09-.15-.08-.31-.28.08-.31.66-.29,1,0-.27-.1-.7-.22-1.37.08,1.93-.29,1.28-.77-.13.1,1.09-.1.47-.18.84-.53-1.42-.3-.59-.49-.08l0,0c-.08-1-.06-1.38-.15-.43-.18-1.1-.22-.5-.21.37l-.16,0c-.08-.34-.18-.59-.36-1.28-.1.33-.12.88-.19,1.23H591a3.47,3.47,0,0,0-.33-.18v0a3.13,3.13,0,0,0-.54-.19c-.06-.43-.1-1-.17,0-.31-1.78.05-.05-.22-.19l-.07-1c-.32-1.19-.17,2.1-.51.09.33,2.69-.21-1.72-.34.85,0,0,0,.08,0,.12h-.1v0h-.07c0-.09,0-.12.07,0,.09-.9-.12,0-.24-1.21,0,.71.17.74-.25.43a4.87,4.87,0,0,1,0,.82H588c-.26-.58-.74-4-.43,0h0c-.47-2.1-.32-2.49-.58-.16h0c0,.07,0,.12,0,.19h-.17c-.19-.68-.46-1.76-.56-1.53a11.22,11.22,0,0,1,.24,1.54h-.17c0-.24-.07-.56-.11-1-.39-.41-.24,2.33-.59,0-.11.68-.16.44-.25.94h-.2c-.06-.47-.08-.32-.11,0h-.59c0-.35-.08-1-.1-.72l.08.72c-.22,0-.43,0-.65-.06,0-.15-.07-.11-.09,0h-.14c0-.06,0-.13,0-.23-.06-.31-.11-.06-.15.21h-.15a8.71,8.71,0,0,1-2.8-.78c-.27-.33-.54-.68-.64-.61s0,.16,0,.23l-.12-.08s0-.07,0-.09a.28.28,0,0,0,0,.09l-.13-.08s0,0-.06,0,0-.21,0-.3a.86.86,0,0,1-.17,0c0,.12,0,.19,0,.27l-.09,0c0-.09-.07-.19-.1-.25l-.09,0a.08.08,0,0,1,0,0v0l-.22-.06a2.53,2.53,0,0,0,0,.38l-.06,0c-.06-.41-.16-.17-.25.13l0,0-.12,0,.3-.62a5.36,5.36,0,0,1-.54-.14,9,9,0,0,1-.87-.31l-.28-.08a2.26,2.26,0,0,1-.35-.17.6.6,0,0,1-.13-.09c0,.33,0,.56-.16-.12h0a.56.56,0,0,0,0-.08c0,.58-.11.43-.09-.13h0a.16.16,0,0,1,0-.07c-.15-.21-.11,1-.28.26-.07-.4-.08-.65.16-.39a15.68,15.68,0,0,1-.21-2c0,.62-.06,1.83-.16,1.51,1.13-14,7.41-22.7,14.47-36.29C593.42,40,616.35,21.5,620.34,20.33,635.57,11.07,657,.26,671,11.84a12.7,12.7,0,0,0-2.29-.8c5,3.15,11.53,7.83,10.12,14.85,1.55.21,3.19,9.43,1.37,5.4-.48,8.07,1.07,14.72-4.16,20.4a52.83,52.83,0,0,0,3.67-12.07c-.91.12-1.85,3.85-2.47,2.11,2,13.52-19.07,29.07-15.42,32.12.4-.6,2-2.67,2.33-3.22,0,.07,0,.15-.06.23,1.25-1.61,2.83-3.74,4.52-6.19-8.34,15.07-25.41,28.05-38.82,39.25a3.94,3.94,0,0,0,.67-.75c-7.74,6-12.16,10.3-18.87,12.79.3-.33.59-.68.88-1C601.37,116.61,588.48,134.79,582.07,123.16ZM666.54,65.7a24.37,24.37,0,0,0-2.06,3.21C664.26,67.54,666.33,65.49,666.54,65.7Zm46.14,42.47c-1.43-2.4-1.85-7.28-2-10.29C710.81,100.3,713.51,105.5,712.68,108.17Zm.19-3.79c-6.13-24.72,16-53.39,36.09-68.5-6.16,2.06,8.17-8.74,5.12-6.36,4.27-1.77,10.2-3.95,7,1.31,1.79-1,.73,1.18.28,2,5.58-5.11-3.73,6.56-5.83,12.49l.9-3.44c-11.72,25.63-25.24,47.94-42.67,65-.59-2.43-1.12-6.2-1.53-7.12A30.71,30.71,0,0,1,712.87,104.38Zm121.46,11.91c.43.54,3.57-4.85,5.55-7.15C840.39,110.57,834.22,118.8,834.33,116.29Zm161.43-6.17c-2.61-10.28,8-13.44,15.39-16.74-1.75,1.46-2.8,3.91,0,1C1018.33,86.42,997,114.61,995.76,110.12Z"/></g></g></svg>