<svg xmlns="http://www.w3.org/2000/svg" viewBox="0 0 280.27 241.02"><defs><style>.cls-1{fill:#cd4638;}</style></defs><g id="Layer_2" data-name="Layer 2"><g id="Layer_7" data-name="Layer 7"><path class="cls-1" d="M73.22,135.15a7.5,7.5,0,0,1-7.33-6L42.45,18,6.86,15A7.5,7.5,0,0,1,8.14,0L49.28,3.57A7.51,7.51,0,0,1,56,9.49L79.22,119.72l164.63-11.18,21.68-80.29A7.5,7.5,0,1,1,280,32.16l-23.07,85.45a7.5,7.5,0,0,1-6.73,5.53l-176.48,12Z"/><path class="cls-1" d="M247.79,177.37H82.15a7.49,7.49,0,0,1-7.34-6l-16-75.78a7.5,7.5,0,0,1,14.68-3.1l14.7,69.83H247.79a7.5,7.5,0,0,1,0,15Z"/><path class="cls-1" d="M118.1,241a22.46,22.46,0,1,1,22.45-22.45A22.47,22.47,0,0,1,118.1,241Zm0-29.91a7.46,7.46,0,1,0,7.45,7.46A7.46,7.46,0,0,0,118.1,211.11Z"/><path class="cls-1" d="M205.66,241a22.46,22.46,0,1,1,22.45-22.45A22.47,22.47,0,0,1,205.66,241Zm0-29.91a7.46,7.46,0,1,0,7.45,7.46A7.46,7.46,0,0,0,205.66,211.11Z"/></g></g></svg>