<svg xmlns="http://www.w3.org/2000/svg" viewBox="0 0 275.37 239.75"><defs><style>.cls-1{fill:#bf4c41;}</style></defs><g id="Layer_2" data-name="Layer 2"><g id="Layer_7" data-name="Layer 7"><path class="cls-1" d="M269.8,21.69A7.5,7.5,0,0,0,260.62,27l-21.81,81.6L77.36,118.49,71.63,91.27a6.39,6.39,0,0,0-.22-.78L54.62,11a7.5,7.5,0,0,0-6.4-5.89L8.44.06A7.5,7.5,0,1,0,6.57,14.94l34.48,4.33L64,127.93c0,.2.1.41.16.61l8.76,41.61a7.49,7.49,0,0,0,7.34,5.95H242.89a7.5,7.5,0,0,0,0-15H86.33l-5.85-27.77,164.64-10.09a7.51,7.51,0,0,0,6.79-5.55l23.2-86.82A7.49,7.49,0,0,0,269.8,21.69Z"/><path class="cls-1" d="M115.2,239.75a22.46,22.46,0,1,1,22.45-22.45A22.47,22.47,0,0,1,115.2,239.75Zm0-29.91a7.46,7.46,0,1,0,7.45,7.46A7.46,7.46,0,0,0,115.2,209.84Z"/><path class="cls-1" d="M202.76,239.75a22.46,22.46,0,1,1,22.45-22.45A22.47,22.47,0,0,1,202.76,239.75Zm0-29.91a7.46,7.46,0,1,0,7.45,7.46A7.46,7.46,0,0,0,202.76,209.84Z"/></g></g></svg>