<svg xmlns="http://www.w3.org/2000/svg" viewBox="0 0 1192.78 161.66"><defs><style>.cls-1{fill:#44567d;}</style></defs><g id="Layer_2" data-name="Layer 2"><g id="Layer_7" data-name="Layer 7"><path class="cls-1" d="M90,61.89a.84.84,0,0,0,.14.39Z"/><path class="cls-1" d="M93.17,60.47a.72.72,0,0,1-.12.39A.45.45,0,0,0,93.17,60.47Z"/><path class="cls-1" d="M314.06,42.61a10.78,10.78,0,0,0,1.34-1.42A14.56,14.56,0,0,0,314.06,42.61Z"/><path class="cls-1" d="M82.42,111c.24-.3.44-.58.63-.83C82.57,110.52,82.3,110.81,82.42,111Z"/><path class="cls-1" d="M131.3,150.81c-.22.27-.45.55-.69.86A6.33,6.33,0,0,0,131.3,150.81Z"/><path class="cls-1" d="M219.07,21.17l.29.31A.64.64,0,0,0,219.07,21.17Z"/><path class="cls-1" d="M101.17,48.39h.33A.22.22,0,0,0,101.17,48.39Z"/><path class="cls-1" d="M92.4,51.11c.24,0,.46,0,.68-.09C93,50.89,92.82,50.86,92.4,51.11Z"/><path class="cls-1" d="M112.49,23.77l-.3.19h.09C112.33,23.9,112.44,23.83,112.49,23.77Z"/><path class="cls-1" d="M365.38,103.59Z"/><path class="cls-1" d="M240.47,142.7c1.67-1.11,3.24-2.23,4.67-3.32C242.06,141.21,240.73,142.23,240.47,142.7Z"/><path class="cls-1" d="M112.19,24c-.38.05-.71.1-1,.16l-1.58.5C108.83,25.09,110,25.35,112.19,24Z"/><path class="cls-1" d="M396,144c.06,0-.11-.29-.1-.31S396,144,396,144Z"/><path class="cls-1" d="M372.33,106c.15.4.41.91.72,1.61-.12-.29-.23-.59-.35-.85Z"/><path class="cls-1" d="M334.5,113.82c.7-.89.87-1.36.81-1.47C334.76,113.24,334.24,113.93,334.5,113.82Z"/><path class="cls-1" d="M475.63,124.48a16.4,16.4,0,0,0,2.15-.42C477.1,124.25,476.08,124,475.63,124.48Z"/><path class="cls-1" d="M423.79,102.69c-.86-.14-1.71-.23-2.53-.29A4.24,4.24,0,0,0,423.79,102.69Z"/><path class="cls-1" d="M383.87,98a1,1,0,0,0-.5-.37C383.37,97.79,383.57,97.91,383.87,98Z"/><path class="cls-1" d="M57.27,78.16c0,.08.1.07.14.13C57.54,78,57.55,77.87,57.27,78.16Z"/><path class="cls-1" d="M276,148.09l.14,0C277,148,276.52,148,276,148.09Z"/><path class="cls-1" d="M474.32,124.43c-.68.07-1.37.13-2.07.17A18.28,18.28,0,0,0,474.32,124.43Z"/><path class="cls-1" d="M294.52,63.37c.11,0,.37-.07,1-.55A3.11,3.11,0,0,0,294.52,63.37Z"/><path class="cls-1" d="M321.94,38.13l.31.36A2.31,2.31,0,0,0,321.94,38.13Z"/><path class="cls-1" d="M322.25,38.49a8.7,8.7,0,0,0,.59.79C323,38.85,322.51,38.88,322.25,38.49Z"/><path class="cls-1" d="M308.86,70.89l-1.27,1.78A4.87,4.87,0,0,0,308.86,70.89Z"/><path class="cls-1" d="M145.44,68.76a7.27,7.27,0,0,1-2.14.89C144.35,69.65,140.06,74.8,145.44,68.76Z"/><path class="cls-1" d="M475.58,123.86a1.86,1.86,0,0,1-1.26.57C474.74,124.35,476.41,124.4,475.58,123.86Z"/><path class="cls-1" d="M331.29,44.14c1.11-3.61.91-8.78-2-11.81C332.12,35.48,332.37,40.21,331.29,44.14Z"/><path class="cls-1" d="M41.63,161.5l-1.73.16A6.28,6.28,0,0,0,41.63,161.5Z"/><path class="cls-1" d="M319.62,68.37l2.77-4C321.42,65.5,319.78,66.74,319.62,68.37Z"/><path class="cls-1" d="M120.54,82.2c-.3.15-.66.35-1.1.6Z"/><path class="cls-1" d="M79.83,32.59s0,0,0,0Z"/><path class="cls-1" d="M294.65,151.89l-.59.28Z"/><path class="cls-1" d="M64.85,158.23l-1.52.62C63.82,158.64,64.34,158.44,64.85,158.23Z"/><path class="cls-1" d="M278.23,148.45a11.49,11.49,0,0,0,1.3-.26C279,148.29,278.56,148.37,278.23,148.45Z"/><path class="cls-1" d="M304.55,92.93c.13-.23.31-.54.47-.84C304.83,92.41,304.66,92.69,304.55,92.93Z"/><path class="cls-1" d="M115.14,22.46c.29-.07.44-.14.82-.21C114.89,21.91,113.22,22.88,115.14,22.46Z"/><path class="cls-1" d="M24.32,159.33l1.25.48C26,159.32,24.45,159.45,24.32,159.33Z"/><path class="cls-1" d="M397,145.29a3.67,3.67,0,0,1-1.47-1.34C395.87,144.8,396.33,145.42,397,145.29Z"/><path class="cls-1" d="M397.89,144.69a1.8,1.8,0,0,1-.91.6C399.19,146.29,401,143.21,397.89,144.69Z"/><path class="cls-1" d="M329.32,32.33a6.17,6.17,0,0,0-.95-1A8.61,8.61,0,0,1,329.32,32.33Z"/><path class="cls-1" d="M344.18,108.58a50.09,50.09,0,0,0-3.1,4.38A22.69,22.69,0,0,0,344.18,108.58Z"/><path class="cls-1" d="M341.59,143V142C338.72,143.25,341.7,142.34,341.59,143Z"/><path class="cls-1" d="M310.67,65.53l1.56-.26C313.12,63.21,312.12,62.14,310.67,65.53Z"/><path class="cls-1" d="M220.43,151.86a37.18,37.18,0,0,0-5.26-2C216.81,151.11,219.21,152,220.43,151.86Z"/><path class="cls-1" d="M60.33,149.26l2.41-1q-2.33.78-4.64,1.48Z"/><path class="cls-1" d="M283,32.68c.17-.21.24-.79-.09-.75C282.83,32.32,281.88,33.13,283,32.68Z"/><path class="cls-1" d="M281.46,31c.33,0,.47.44.33.77,2.3-.66-1-.79-.63-1.26C280.13,31.41,279.75,33.43,281.46,31Z"/><path class="cls-1" d="M227.38,22.17a.8.8,0,0,0,.2.07C227.51,22.15,227.43,22.1,227.38,22.17Z"/><path class="cls-1" d="M250.24,24.69l-.51-.34C249.68,24.66,250,24.6,250.24,24.69Z"/><path class="cls-1" d="M276.59,31.82a.74.74,0,0,0,.32-.2C276.76,31.67,276.6,31.62,276.59,31.82Z"/><path class="cls-1" d="M259.26,24.22l-.33.36C259.16,24.66,259.16,24.4,259.26,24.22Z"/><path class="cls-1" d="M265.58,25.17c-.15-.06-.3.76-.41,1.11C265.44,25.67,265.69,25.82,265.58,25.17Z"/><path class="cls-1" d="M254.16,23.7a.78.78,0,0,0,0,.3A1,1,0,0,0,254.16,23.7Z"/><path class="cls-1" d="M83.49,66l-.08-.12C83.42,65.93,83.44,66,83.49,66Z"/><path class="cls-1" d="M221.26,21l0,0C221.45,21,221.35,21,221.26,21Z"/><path class="cls-1" d="M165.16,28.23c-.15-.31.61-1.43-.27-1.76C165.67,27.07,164.06,27.62,165.16,28.23Z"/><path class="cls-1" d="M207.23,22.05a.85.85,0,0,0-.16-.36A1.7,1.7,0,0,0,207.23,22.05Z"/><path class="cls-1" d="M217.64,22.7l-.26-.11A.61.61,0,0,0,217.64,22.7Z"/><path class="cls-1" d="M201.52,23c-.07-.07-.37,0-.21.12C201.36,23,201.42,23,201.52,23Z"/><path class="cls-1" d="M196.24,23.52l-.3-.1C196,23.57,196.09,23.59,196.24,23.52Z"/><path class="cls-1" d="M276.67,31.36c-.07.2-.14.29-.23.32C276.66,31.75,276.71,31.5,276.67,31.36Z"/><path class="cls-1" d="M201.73,29.61l-.89-.07A3.53,3.53,0,0,0,201.73,29.61Z"/><path class="cls-1" d="M130.11,43.33l-.16.16A.18.18,0,0,0,130.11,43.33Z"/><path class="cls-1" d="M197.6,29.49l.62.32C198,29.53,197.67,29,197.6,29.49Z"/><path class="cls-1" d="M128.51,44.33l-.07-.19C128.42,44.26,128.28,44.43,128.51,44.33Z"/><path class="cls-1" d="M259.55,28.64a.5.5,0,0,0-.1-.22A.43.43,0,0,0,259.55,28.64Z"/><path class="cls-1" d="M263.38,29l.52.36A2,2,0,0,0,263.38,29Z"/><path class="cls-1" d="M217.86,28.24a.21.21,0,0,0-.11,0C217.47,28.44,217.66,28.37,217.86,28.24Z"/><path class="cls-1" d="M232.37,26.52a3.09,3.09,0,0,1-.48.37C232.15,27,232.35,27,232.37,26.52Z"/><path class="cls-1" d="M201.83,29.62s-.09,0-.1,0Z"/><path class="cls-1" d="M231.22,26.86a.59.59,0,0,0,.67,0A.87.87,0,0,0,231.22,26.86Z"/><path class="cls-1" d="M279.34,32.51c.09-.2,0-.09-.14-.06Z"/><path class="cls-1" d="M279.38,32.39l.18-.06C279.49,32.31,279.43,32.3,279.38,32.39Z"/><path class="cls-1" d="M279.94,32.19l-.38.14C279.68,32.35,279.81,32.41,279.94,32.19Z"/><path class="cls-1" d="M275.26,31.55a.72.72,0,0,0,.1-.28Z"/><path class="cls-1" d="M274.15,31.13c.24.09.93,1.13,1.11.42C275,32,274.51,30.67,274.15,31.13Z"/><path class="cls-1" d="M270.85,26.21c-1.16-1.15.16.75-1.17.41C271,27.34,270.09,26.6,270.85,26.21Z"/><path class="cls-1" d="M266.64,25.07c-.39.25-.49.31-.11.64C267.11,25.63,266.59,25.25,266.64,25.07Z"/><path class="cls-1" d="M243.24,23.78l.09-.75C242.89,23.12,243.31,23.32,243.24,23.78Z"/><path class="cls-1" d="M239.26,27.29c-.6.14-.69.21-.22.68Z"/><path class="cls-1" d="M235.67,22.17a3,3,0,0,0,.73-.25Z"/><path class="cls-1" d="M196.91,22.62l.19.92C197.38,23.35,197.38,22.31,196.91,22.62Z"/><path class="cls-1" d="M180.07,25.25c-.24-.44-.76-.66-1-.17C179.47,25.09,179.9,25.39,180.07,25.25Z"/><path class="cls-1" d="M129.85,35.89c.28,0,.44-.25.53-.46Z"/><path class="cls-1" d="M1037,100.11c-.37-.43-.7-.92-1.09-1.33C1036.16,99.14,1036.5,99.63,1037,100.11Z"/><path class="cls-1" d="M1136.63,115.84a16.89,16.89,0,0,0,2.48-.26C1138.3,115.73,1137.29,115.38,1136.63,115.84Z"/><path class="cls-1" d="M1020.35,114.61l-1.86,1.87A4.47,4.47,0,0,0,1020.35,114.61Z"/><path class="cls-1" d="M1123.45,112l1.65-.28Z"/><path class="cls-1" d="M1009.93,102.24c-.09-.09-.32-.06-.58.08A1,1,0,0,0,1009.93,102.24Z"/><path class="cls-1" d="M485.28,98c0,.08,0,.13,0,.2C485.63,98.05,485.73,98,485.28,98Z"/><path class="cls-1" d="M912.08,104.92l.2-.13C913.3,103.81,912.69,104.32,912.08,104.92Z"/><path class="cls-1" d="M1135.14,115.68l-2.36,0C1133.85,115.68,1134.58,115.71,1135.14,115.68Z"/><path class="cls-1" d="M862.12,86.13a3.66,3.66,0,0,0,1-.78C863,85.32,862.76,85.49,862.12,86.13Z"/><path class="cls-1" d="M884.7,122.84a11.81,11.81,0,0,1-1.78.24A6,6,0,0,0,884.7,122.84Z"/><path class="cls-1" d="M828,117.83a15,15,0,0,0-1.85.28A3.9,3.9,0,0,0,828,117.83Z"/><path class="cls-1" d="M1136.62,115.27a2.4,2.4,0,0,1-1.48.41C1135.58,115.63,1137.47,115.86,1136.62,115.27Z"/><path class="cls-1" d="M817.94,126.39a19.42,19.42,0,0,0,10.67,1.16A20.58,20.58,0,0,1,817.94,126.39Z"/><path class="cls-1" d="M630.5,147.83a6.68,6.68,0,0,0,1.7-.91Z"/><path class="cls-1" d="M868.76,70.44A3.77,3.77,0,0,1,871,68.32C869.34,67.62,869,69,868.76,70.44Z"/><path class="cls-1" d="M868.76,70.44a6.7,6.7,0,0,0-.54,2.27A10,10,0,0,0,868.76,70.44Z"/><path class="cls-1" d="M520.16,153.7h0S520.11,153.71,520.16,153.7Z"/><path class="cls-1" d="M946.57,135.13a7.82,7.82,0,0,1-1.2-1.26l-.9-.37C945.62,134.8,945.53,134.41,946.57,135.13Z"/><path class="cls-1" d="M656.93,134.24a13.57,13.57,0,0,0-2.34,1.95C655.6,135.36,656.36,134.73,656.93,134.24Z"/><path class="cls-1" d="M577.33,134l.33.28a11.4,11.4,0,0,0,1.81.65A21.28,21.28,0,0,1,577.33,134Z"/><path class="cls-1" d="M709.8,84.88a2.31,2.31,0,0,1,1.14-.15C711.59,83.08,710.35,84.52,709.8,84.88Z"/><path class="cls-1" d="M488.47,150.2l1.08-.31C488.77,149.86,488.32,149.94,488.47,150.2Z"/><path class="cls-1" d="M648,30.13c.07.94.1,1.74.11,2.49A20.56,20.56,0,0,0,648,30.13Z"/><path class="cls-1" d="M940.73,66.17c.48-2.57-.57-5.1-2.91-6,.55,1.78-1.24-4,1.23,4a7.19,7.19,0,0,0-1,2.65C934,60,939,70,940.72,73,940.22,70.08,941.39,63.41,940.73,66.17Z"/><path class="cls-1" d="M811.18,86.27h.2a4.32,4.32,0,0,1,0-2.24l-1.46.83A3.65,3.65,0,0,1,811.18,86.27Z"/><path class="cls-1" d="M636,53.21l-.1,0C635.84,53.39,635.86,53.4,636,53.21Z"/><path class="cls-1" d="M1048.78,92.46c.39-.52.76-1,1-1.35-.5.25-1,.49-1.58.74A1,1,0,0,1,1048.78,92.46Z"/><path class="cls-1" d="M632.18,18.85a5.4,5.4,0,0,0-.69-.08C631.76,18.81,632,18.84,632.18,18.85Z"/><path class="cls-1" d="M914.36,102c-.65.57.86,1,.5,1.38C915.67,102.65,914.33,102.06,914.36,102Z"/><path class="cls-1" d="M923.8,92.29a8.55,8.55,0,0,0,1.32-1.62Z"/><path class="cls-1" d="M1035.86,98.78a2.43,2.43,0,0,1-.38-.53,2.71,2.71,0,0,1,.17.31Z"/><path class="cls-1" d="M1028.51,116.42a3.7,3.7,0,0,0,1-.51A4.26,4.26,0,0,0,1028.51,116.42Z"/><path class="cls-1" d="M1044,127.08a1.21,1.21,0,0,0,.73,0C1044.51,127,1044.22,127.12,1044,127.08Z"/><path class="cls-1" d="M953.62,88.37c.06,1.42-.74,3.27.09,4.06A34.4,34.4,0,0,0,953.62,88.37Z"/><path class="cls-1" d="M829.73,127.36a9.72,9.72,0,0,0-1.12.19Z"/><path class="cls-1" d="M952.76,83.24a26.43,26.43,0,0,1,.86,5.13A9.24,9.24,0,0,0,952.76,83.24Z"/><path class="cls-1" d="M1161.76,119.15l-1.43-.23C1160.54,119,1161.65,119.35,1161.76,119.15Z"/><path class="cls-1" d="M1161.76,119.15l1.43.23A4.39,4.39,0,0,0,1161.76,119.15Z"/><path class="cls-1" d="M1166.19,119.88c-1-.19-2-.33-3-.5A10,10,0,0,0,1166.19,119.88Z"/><path class="cls-1" d="M1125,115.69l-.38.41A.61.61,0,0,0,1125,115.69Z"/><path class="cls-1" d="M1124.64,116.1c-2,.64-8.31-.1-10.36.91C1117.27,116.45,1121.69,117.35,1124.64,116.1Z"/><path class="cls-1" d="M1078.17,122.38c-6.72,1.58-2.2,2-7.15,3.58,2.37-.7,4.72-1.54,7.08-2.45C1076.46,123.77,1074.33,124.08,1078.17,122.38Z"/><path class="cls-1" d="M1069.43,126.41c.62-.16,1.14-.31,1.59-.45C1070.49,126.11,1070,126.27,1069.43,126.41Z"/><path class="cls-1" d="M1044.83,121.06c1.62,1.59,1.76,1.37,1.43.93C1045.41,120.3,1042.06,117.05,1044.83,121.06Z"/><path class="cls-1" d="M948.4,124.75a5.4,5.4,0,0,0,.1.58,3.24,3.24,0,0,0,.22.83,13.5,13.5,0,0,1-.27-4.9A15.21,15.21,0,0,0,948.4,124.75Z"/><path class="cls-1" d="M777.46,87.92c3.4-.23,6.82,0,8.54-.29A17,17,0,0,0,777.46,87.92Z"/><path class="cls-1" d="M648.62,126.72c.78-.64,1.58-1.24,2.33-1.93-1.51,1.13-3.1,2.11-4.64,3.18Z"/><path class="cls-1" d="M1145.53,115.89h0C1145.47,115.91,1145.5,115.9,1145.53,115.89Z"/><path class="cls-1" d="M1151.55,116.08s0,.07.12,0l0,0S1151.59,116.13,1151.55,116.08Z"/><path class="cls-1" d="M1192.76,127.9h-.37a.31.31,0,0,0,0-.18l0,0,.19.16c0-.19-.09-.18-.21-.17a.21.21,0,0,0-.07-.12s0-.08,0-.11l-.11,0,0,0a.34.34,0,0,0,.13-.25,4.85,4.85,0,0,0-.49-.29c.11-.11.34.08.3-.24-.23-.12-.22.32-.45,0,.06-.26.2-.27,0-.43.07-.08.15-.06.23,0-.2-.15-.33-.51-.57-.48.06-.32-.48-.57-.19-.78a1.34,1.34,0,0,1-.61-.25c.57,0-.5-.56-.11-.83-.47.11-.86-.53-1.37-.61,0,0,.12,0,.14,0-.19-.18-.19-.33-.28-.49-.22.26-.6.11-.9.18-.09-.45.38-.24.46-.57-.13.24-.61,0-.64.21-.11-.3-.13-.19-.1-.51-.24.36-.23,0-.53.1-.21-.36.11-.41-.29-.47-.1-.2.27-.18.27-.18-.34-.19-.31.2-.46.33-.46-.12-.09-.31-.15-.53-.3-.06-.63.13-.82,0,0,0,0-.09,0-.13-.38.11-.82-.36-1.26-.19a.14.14,0,0,1,0-.09,1.27,1.27,0,0,1-.13.44c-.16-.06-.37.07-.34-.15.09,0,.13,0,.2-.08l-.19,0c0-.35.26,0,.35-.22-.36,0-.82,0-1-.14.07-.31.6.14.39-.24l.33.26c-.1-.56.21.13.15-.45-.46-.3-.61-.1-1.07-.39-.17.11-.06.25-.23.36-.82,0-.26-1-.93-.78-.21.13-.41.47-.69.13l.25-.27c-.46-.23-.46.35-.87-.07.14-.09.42,0,.36,0-.22-.39-.3.09-.55,0l.06-.31c-.53-.17-1.17-.18-1.76-.35.06-.07.19-.13.1-.27a6.05,6.05,0,0,1-2.16-1.06l-.36.15a.1.1,0,0,1,0-.18c-.24-.2-.08.16-.25.21a.14.14,0,0,1,0-.27,2.63,2.63,0,0,1-2-.47l.13,0c-.37-.25-.63.38-.92,0l.09,0c-.83-.41-1.86-.47-2.4-1.08-.25.34-.81-.44-1,.08-.42-.41-.25-.46-.91-.85-.18-.08-.37.26-.62.25l.07-.28-.4.21-.08-.38h-.24a.26.26,0,0,1,.12.26c-.38,0-.79-.42-.76-.57l-.88,0c0-.11.2-.12.32-.17-.51.19,0-.32-.47-.15,0,.08-.07.17-.09.22a1.39,1.39,0,0,0-1-.34l.11-.18c-.6-.19-1.32-.18-2-.33a.25.25,0,0,1-.11.46l0-.32c-.17.16.19.16-.12.34-.25-.09-.11-.38.06-.45l-.33,0c0-.09.08-.13.12-.24-.17.17-.49-.4-.74-.11v-.09c-.69-.13-1-.09-1.59-.16-.06.27-.27.17-.47.36a4.81,4.81,0,0,0-1.34-.47c-.37.09-.13.21-.31.35,0-.24-.5-.28-.22-.42a5.08,5.08,0,0,0-1.57.07c.08.11.17.16.11.23s-.31-.13-.28-.24l0,0c-.88.28-1.93-.88-2.66-.4l0,0-.72.23c-.33,0,.2-.17,0-.33-.79.37-1.22-.1-1.86.16-.48-.72-1.73,0-2.39-.41l0,.17c-.17.16-.21-.1-.33-.13,0,.13.18.14.08.24a22.44,22.44,0,0,1-4.46-.26c-.54,0-.26.87-1,.5l.18-.31c-1.07.41-2.21.09-3.25.46.06-.08.06-.17.16-.17-.24-.21-.83,0-.82.21-.17,0,0-.16-.15-.25s-.38.12-.54.16l.32-.16a2.86,2.86,0,0,1-.43.13l0,0s.06-.07.1-.09c-.13.11-.6,0-.54.21l-.16,0c-.33,0-.63.15-.91,0-.16.26-.57,0-.69.19h-.06c-.11-.29-.71-.18-.93,0,.08-.13-.22-.12-.13-.3-.29,0-.55.12-.49.33-.55-.47-1,.45-1.36-.17-.59.19-1.13.33-1.67.45h-.62c.21-.15.74,0,.7-.36a8.49,8.49,0,0,0-.88.35c-1.26-.08-1.34-.4,1.46-1.15-3.91-.83-7.67,1.2-9.07-.17-1.72.31-3.43.56-5.13.92,1-.43-1-1,2.23-1.08-5-.81-15.8,3.81-17.6,2.88-11.89,3.63-1.17.89-9.91,5.39-4-1.63-8.52,1.72-11.26,2-15.25,9.46-34.2,12.22-40.76-7.78.15.07.3-.07.48-.58a2.21,2.21,0,0,0-1.08-1.45c-.33-1.24-.63-2.55-.87-4a27.65,27.65,0,0,1,.36-3.18c1.15,2,1.5,1.46,2.45-5-1.14,5.36-1.21,6.16-2.36,4.47.06-.31.13-.61.2-.91.63.63,1,.39,1-1.86a6.14,6.14,0,0,1,0-.75l.61-.6.19-.09,0-.08a39.5,39.5,0,0,0,4-4.78c.25-.11.51-.2.78-.29-.31.42-.58.8-.78,1.09a24,24,0,0,0,2.71-2.92,1,1,0,0,0,.17-1c-.58.77-1.24,1.63-1.81,2.41a3.15,3.15,0,0,0-.27-.45L1047,94c1.2-1.56,0-1.12-1.6-.17-.9,0-2,.82-3.2,2,1.49-1.84,3.84-2.92,6-3.9a1,1,0,0,0-.63,0,15.76,15.76,0,0,0-5.09,1.85c.16-1.38.1-2.48-.56-2.87a51,51,0,0,0-8.36,1.8c-4.29-2.35-8.79-3.46-9.86-1.45a13.09,13.09,0,0,0-10.84,1.18,2.61,2.61,0,0,0-1.13-.74l.19.49-.32-.2.11-.16c-.34-.16-.15.1-.05.3a1.12,1.12,0,0,0-.37-.21l.4.66c-.24-.18-.38-.48-.61-.49.19.31.58.4.63.68-.34-.17-.53-.39-.39-.09a.69.69,0,0,1-.27-.33c.1.25-.13.29.14.61-.41-.21-.17.36-.72-.15.11.14.3.54.25.63-.54-.74-.3.25-1-.43.51.64-.07.61.1,1.09,0,0-.12-.16-.08-.15-.14.06-.35-.07-.53-.11a1.94,1.94,0,0,1,.53.76l-.14.13c-.28-.24-.33-.49-.73-.78.42.36.22.58.6.84a2.14,2.14,0,0,1-.69-.37c.63.58,0,.19.35.61-.46-.14-.65-.49-.6-.17a.75.75,0,0,1-.37-.44c-.16.14.41.49.67.77,0,.3-.45-.24-.77-.4,0,.23.39.71.29.78a1.16,1.16,0,0,1-.22-.18c.25.4-.19.38,0,.76l-.07.07c-.28-.22-.24-.43-.39-.24a3.11,3.11,0,0,1,.38.25l-.18.19c-.58-.35.23,0-.63-.54-.36.1,0,.45-.35.55a3.65,3.65,0,0,0,.53.47c-.07.08-.14.17-.22.25-.41-.2-1-.64-.7-.14.11.14.29.32.42.47l-.15.17-.39-.39c-.15.1.13.36.26.54l-.13.17c-.2-.23,0-.32-.14-.35-.5-.2,0,.18.11.39l0,.05-.49-.36a4.53,4.53,0,0,0-.07,1l-.26,0a.75.75,0,0,0-.28-.18c0,.54-.69.63-1.33.67l.39.51s-.27-.12-.34-.23c-.3,0,.31.26.46.47,0,.1-.37-.13-.49-.29.18.42.32,1,0,1.14l-.21-.11c-.08,0-.11.08-.12.13h-.05l-.11-.17c-.15,0,0,.18.12.37a.2.2,0,0,1-.13.19.93.93,0,0,0,.19.17.86.86,0,0,0-.31.25c-.19-.07-.32-.1-.19.14l0,.06c-.18.24-.39.45-1,.27.74.64-.67.13.41,1-.73-.17-.88-.38-1.51-.34-.13.05.59.65.62.84l-.59-.43.51.6-.77-.44.07.21a1.2,1.2,0,0,1,.5.24c.14.35-.72.08-1-.13l.21.74a1.47,1.47,0,0,1-.38-.47c.45.64-.67-.42-.25.17a2.91,2.91,0,0,1,.47.36c-.44-.17-.61,0-.58.3l-.39-.33c-.34.22-.29.76-.54,1.09a2,2,0,0,1,1,.71l-.7-.41c.37.34.33.06.74.53-.16.08-.83-.42-1-.64l.12.31c-.21-.13-.29-.23-.54-.41.38.34-.89-.18-.21.39l-.21-.12c-.26.35-.12.67-.28,1,.6.38.39.41.83.79-.32.09-1,0-1.07.35.2.36.5.35.82.64-.58-.31-.68,0-1-.37a1.43,1.43,0,0,0,.13,1.14,1.77,1.77,0,0,1,.59.21c.06.12-.34,0-.62-.11l0,0c.33.46-.24.51-.78.6s-1,.22-.46.69l-.06,0,.5.69c-.19.15-.43-.3-.88-.31.88.87-.47.7.12,1.34-1-.15-1.1.17-1.07.5s.17.72-.54.82l.4.06-.15.15a.59.59,0,0,0-.21,0l.18,0c-.2.23.1.14.47,0l.06,0a1.73,1.73,0,0,1-.48,1.57c-.23.37-.54.76-.78,1.18-2.48,1.68-5,3.28-7.57,4.73,4.27-3.75-1.91.57,4.47-3.69-6.3,3.87-7.88,4.25-13.9,8.89.64-2-5.86,1.7-7.82,2.52-43.74,5.81-5-23.79-10.31-44.22-1.63,3.62-4.18-7.44-7.21-8.19-5.41-4.17,2.81-2.38,3.39.35-1.22-1.18-2.46-1.74-2.18-1.43A18.48,18.48,0,0,0,955,77h0c2.28,2,3.9,5.9,2.76,2.09-2.63-4.49-11.07-7.6-13-8.45C943.2,72.36,942.57,73,942.5,73a6.48,6.48,0,0,1,2-1.2c-1.24.7-2.37,2.19-3.69,1.37l-.14-.23a2.67,2.67,0,0,0,.33,1c-2.58-.25.69.1,1.07,3h0v0s0,0,0,.08l0-.07a3.27,3.27,0,0,0,.82.58s0,0,.06,0c1.39.71,3.42,1,5.31,2a17.76,17.76,0,0,0-3.53-.46c2,.46,6.1,1.53,7.2,4.16a6.91,6.91,0,0,0-3.23-3.79c3.19.75,4.44-.06,5.51,3.64.56,1.41.84,7.51-.6,9.37-.07,11.2-12.48,15.12-11.3,29.4-1.34-5.26-.89,9.21-.45,8.52.36,1,1,1.86,1.08.62.42-.53.66,0,1.17,1a5.41,5.41,0,0,0,2.91,2.58,42.1,42.1,0,0,0,16.88,3c-.35.11-1.68.22-2,.3,1.36-.11,3.84-.06,5-.66,9.68-1.73,17.3-8.74,28.24-17.1a1.13,1.13,0,0,0,.26.16c-.22,0-.5.13-.52,0-.62.43.23.68.75.44,0,.15-.47.24-.7.44-.31.36,1,.05.41.45a.41.41,0,0,1-.29,0c.34,0,.18.58.85.08-.18.49.62.36.35.85.29-.13.37-.09.41,0-.19.16-.05.37.15.45-.24.32-.1.51.17.52.1,0,.15.1,0,.19s-.13,0-.16,0,.13.11.18.19a1,1,0,0,1-.31.29c.14.15.37.17.69-.07a.61.61,0,0,0,.12.16c0,.15.07.2.19.2a.29.29,0,0,1,.05.21c.3-.11.29.16.39.24l-.18.28.28,0c0,.24.31.37.55.26-.18.12,0,.26-.24.45a.37.37,0,0,0,.58-.19.74.74,0,0,0,0,.15l-.14.2a.65.65,0,0,0,.19,0c.19.24.81-.34.55.48l1.36-.17.21.11c-.21.4-.43-.16-.64.46a5.23,5.23,0,0,0,.85-.39.66.66,0,0,0,.28,0l.09,0a.1.1,0,0,1,0,.09s0,0,0,0h0a1.74,1.74,0,0,1-.19.26c.34-.13.57.07.84.06v0a.49.49,0,0,0,.19,0l-.06.13.09-.07,0,.06c.07,0,.13.13.19-.18l-.08.07h0a5.78,5.78,0,0,0,.44-.63c0,.08.06.13.08.2s-.13.26-.21.48c.08-.13.15-.26.23-.38a1.61,1.61,0,0,1-.15.6.67.67,0,0,0,.17-.39c.06.07,0,.19-.06.41.27-.12.25-.46.46-.41,0,.15-.08.2-.13.37.16-.26.32-.54.47-.39,0,.09,0,.21-.07.2.29,0,.58-.56.86-.42a.45.45,0,0,0,0,.19c-.06.27,0,.27,0,.34a2,2,0,0,1,0,.37l.07-.07v0l.21-.15v-.07l0,0v-.19c.14-.06.29-.32.4-.15l-.14.22.31-.07-.15-.24,0-.08.36-.15-.08-.22a.41.41,0,0,1,.14.27h0c.09-.17.18-.36.29-.21s-.07.63,0,.75c.08-.36.26-.24.39-.38v0a.45.45,0,0,0,.11-.23,1.72,1.72,0,0,0,0,.48l.08-.39a.59.59,0,0,1,0,.42c.23.08,0-.72.21-.4,0,0,0,.09-.06.15.26.16.51-.24.75,0,.08.57-.21.14-.13.62a2.32,2.32,0,0,0,.63-.44l0,.08V127l.12-.07a2.4,2.4,0,0,0,0,.29,1.31,1.31,0,0,0,.39-.46c.08.12.15.21.21.05a1.83,1.83,0,0,0,0,.36c.24.11.47-.22.79-.51l0,.21c.15.16.37.06.53.13,0-.21.1-.18,0-.47.61,1.09.75-.74,1.3.14l0,0c-1.44.73-4.63,1.75-3,1.5,1.14-.5,2.13-1,3-1.38,0,0,0,0,0,0l.16-.13,1-.49c.09.13.11.08.2.11h0l.28.13-.09-.1a1.68,1.68,0,0,1,0-.32l.36-.19a.84.84,0,0,1,.15.32c.09.09.21.19.22.32,0-.37.26.19.27-.33,0,.13.11,0,.19.31.11-.15-.1-.22-.14-.39.07-.5.67.36.77-.35a2.21,2.21,0,0,0,.14-.75l.18-.1a1.3,1.3,0,0,1,0,.26c.19.12.28,0,.34-.14a.66.66,0,0,0,.17.3s0-.24,0-.32l.1.06a4,4,0,0,1,.08.43c.07-.16.09-.42.16-.57.12.18.06.33.07.48l.12-.19,0,.09a.32.32,0,0,0,0-.14.61.61,0,0,0,0-.43l-.13-.07s.14.25.13.33a.21.21,0,0,1,0,.11,1.4,1.4,0,0,0-.2-.32l0,0a.65.65,0,0,0-.15-.2s0,0,0,0v0l.3-.19.17.11a1.73,1.73,0,0,0,.25.81c-.08-.4,0-.26-.11-.72h0a.4.4,0,0,1,.17.22c0-.11.13,0,.06-.22l-.09-.08a1,1,0,0,0,0-.47,8,8,0,0,0,.83-.69v0a1.59,1.59,0,0,0,.13-.13c.07.2.14.4.18.56,0-.18,1,.55.95.3l.12-.13c.1.27-.88-.52-.81-.29,0-.23,1.11.51,1,.06l.12-.16c.11.28-.76-.43-.59-.14-.23-.64.82.4.69,0,0-.06.07-.12.11-.17l.1.19c-.07-.21.17.09,0-.36.79-1.41-.06-1.35,4.4-4.65-4.76,4.26,1.78-.43,4.21-1.81,3.75-4.85,5.43-8.65,7.64-10.74-.12.67-.22,1.35-.29,2,.83-3.9,2.06,12.07,8.05,17.39-1.2.13,4.09,4.66,5.24,5.78,17.85,5.35,32.45-4.54,51.3-11.89l-.15.16a.11.11,0,0,0,.19.1l0-.26.77-.3a.7.7,0,0,0-.06.33.17.17,0,0,1-.28,0c0,.08-.22.06-.2.23a.46.46,0,0,0,.59-.29c.07,0,.06.11.07.16a.78.78,0,0,0,.06-.45l.26-.1s0,.07,0,.11h.2c-.06,0-.1,0-.11-.13l.39-.14,0,0-.14.12c.31.29.53-.17.79-.41l.16-.06v.33l.21-.41h0c.11.06.23.22.1.34.3.06.15-.21.43-.11,0,0,0,0,0,.06l.19-.19c0,.09.14.22,0,.23.49,0,.56-.54.83-.33l0,0c.5-.3,0-.28.24-.65l.09,0,.48.47,0-.27c.07,0,.19,0,.21.07.16-.25-.08-.1,0-.31.38.14.78-.37,1,0,0-.23-.33-.06-.06-.3.23.42.34-.19.68-.06,0,.25-.31.2,0,.33,0-.43.55-.06.75-.19a.17.17,0,0,1,.09-.2c0,.11,0,.17-.09.2a.59.59,0,0,0,.08.16c.06,0,0-.25,0-.36.16-.11.48-.13.74-.26,0,.12.76,0,1.15,0v.06c0-.33.39-.35.65-.47a.37.37,0,0,1-.14.4l.26-.06a.42.42,0,0,1,.27-.25l0,.25c.33-.07.63-.4,1.1-.31,0-.23-.46-.57,0-.8,0,.12.09.32,0,.39,0,0,.13-.12.22-.08l-.15.23c.21.06.07-.19.24-.19,0,.17.14.1.14.24s-.16,0-.21,0a.72.72,0,0,1,.52.2c0-.1,0-.24.09-.28.34-.06.15.2.36.26.07-.14.31,0,.28-.3.1,0,.13.1.18.17.16-.14.83-.13.59-.39h0l0,0c.56-.33,1.24,0,1.81-.16v.09c.34-.14.77-.14,1-.35.11,0,.26.14.23.25.26-.08.28-.19.68-.07-.26.17.1.13-.27.13.36.05.44.19.8-.08-.11.24.28.27.44.19l-.25-.15a1.77,1.77,0,0,1,.51,0l-.07.31c.73.31,1.24-.71,1.82-.13.18-.22-.39-.12-.24-.38.33,0,.7.43.8.43.46.14.4-.47.87-.38a.33.33,0,0,1,.21-.5c.33,0,.43.43.23.52s-.12,0-.12-.05-.24.1-.1.21l0-.11c.17.1.63.06.53.24.24-.11.1-.18-.09-.22.43.13.66,0,1.1,0-.07-.06-.15-.18-.08-.18.65.1.27-.22.7-.29.26.15-.06.4.36.24.27.1.08.28,0,.37.39-.22.75.1,1,.13l-.2.1a.81.81,0,0,1,.32-.07l-.13-.21c.13,0,.23,0,.23.12.12-.15-.11-.36.13-.56.17.1.49-.15.56.14-.52-.07.07.28-.36.35a.46.46,0,0,1,.31,0s0,.06,0,.08c.51.23.21-.34.72-.36,0,.17.14.31.22.27-.21,0-.12-.27.07-.4.33.11.35-.11.52-.11l-.2,0a.2.2,0,0,1,.12-.12c.18.13.17-.07.28,0-.06,0-.13,0-.07.07a.19.19,0,0,1,.07-.06s0,0,0,0,0,0,0,.07l.13-.11h0c0,.09.06.21,0,.18a.29.29,0,0,0,.35,0,.37.37,0,0,0,.34,0c.17.1,0,.31.18.37.38-.23.44.2.84,0-.07-.11-.1-.15-.08-.2s.06,0,0,0l.16-.14-.19.06c0-.07,0-.15.17-.15l-.27,0,0,0a1.52,1.52,0,0,0-.38.11v-.21l.09,0a.11.11,0,0,1,0,.09.41.41,0,0,0,.06-.1c.18-.06.36-.24.59-.1v.54a.94.94,0,0,0,.78-.1s0,0,0,.07.08-.09.08-.12l.21-.06s0,0,0,.08,0,0,0-.08a1,1,0,0,1,.34,0l-.21-.08c.08-.22.4,0,.6-.15,0,.18.12.24.21.35,0-.11.3-.06.44-.24v0a.24.24,0,0,1,0-.09.26.26,0,0,0,0-.09l.29.23a.51.51,0,0,0,.18,0s0,.06,0,.09l.06-.1a.42.42,0,0,0,.16-.09v.1c.2,0,.4-.22.64-.21,0,.06,0,.12-.18.19.16,0,.31,0,.31-.11.07.07.23-.06.38-.11a.39.39,0,0,1,.17.19v-.14h.08l0,0s0,0-.06,0,0,0,0,0h0a.93.93,0,0,1,0-.1c.21,0,.08.23.22.32.05-.14.22,0,.21-.29.08,0,.09.14.12.21.11-.11.46-.07.48-.23h.15l.06,0s0,0,0,0h.51c-.09.09-.08.34.1.25l-.06-.26h.41l.08,0,0,0h.06v0l.16,0,.71,0a.22.22,0,0,1,0,.11c.19-.07.21-.17.49,0-.2.16.06.14-.2.11.24.09.29.24.57,0-.1.24.17.31.29.25l-.16-.18a.72.72,0,0,1,.36,0l-.07.31a.43.43,0,0,0,.16.09l-1.12.31c1.14-.09,3.15-.12,5.28-.09a.63.63,0,0,1-.1.12c.3-.19.51.19.67.25l-.16.07a.53.53,0,0,1,.24,0l-.06-.23c.08,0,.15,0,.14.15a.63.63,0,0,0,.06-.32h.31c0,.1.06.26-.13.28a.22.22,0,0,1,.22,0s0,.06,0,.08c.32.3.2-.33.55-.28-.06.16.06.33.12.3-.14,0,0-.26.08-.38h.09a.14.14,0,0,0,.15,0l.78,0h.14c.08.13,0,.3.06.39.31-.19.28.26.59.11-.06-.23-.08-.18.15-.37l-.5.1.25-.21.38,0,0,.31c.32.29.65-.21,1.08,0l-.13-.12c.09-.21.28,0,.44-.06,0,.18,0,.26.09.39,0-.14.33,0,.42-.32l.17.28c.25.11.39-.19.58-.32l.22,0c-.08.16,0,.29-.22.39.11,0,.21.07.23-.06,0,.13.36-.21.44,0,.06-.08.11-.27.24-.24a.3.3,0,0,1,0,.09s.06-.06.1-.1l.25,0a1.71,1.71,0,0,0,.67.14c.33.16-.67.34-3.93.51,1.85,0,8.91,1.13,12.85,1.56a1.75,1.75,0,0,0,.51.14.31.31,0,0,1,0-.09l.28,0a.19.19,0,0,0,.05.1.12.12,0,0,1,0-.1l.51,0c0,.06-.16,0-.17.14.29.1.08.27.25.46,0-.21.16-.28.32-.16l-.19-.32c.47-.23.27.56.76.33l-.17.16c.24-.07.8.15,1.1-.28,0,.08,0,.24,0,.27.5.17,1.25-.27,1.6.09l-.07.13c.11,0,.23-.23.32-.06s-.07.13,0,.15.3-.2.41-.09l-.14.14c.47.28.86-.23,1.3-.24-.08.42.28.63.47.74l0,.06c.58.17,1.07-.12,1.65-.17a.75.75,0,0,0,.46.39c-5.26.11.27.62,5,1.64v0h.06c.7.15,1.39.32,2,.5a.58.58,0,0,0,.32.09c1.55.47,2.66,1,2.68,1.66,5.23,1.7,5.76,1.73,4.34,1,.48.1,1.15-.25,1.4.5,0-.07,0-.1,0-.15.61.73,1.75.78,2.2,1.71.14.23.29.07.52,0l-.13.25.41-.09c.26,0,.25.35.33.6l-.16-.07c-4.48.06.12.83,1.83,1.8.58.12.77-.1.39-.5l.11-.07h0l-.08.07-.11-.1,0,0,.17.06C1192.47,128.62,1192.87,128.4,1192.76,127.9ZM942.52,76.08c.06-.15.13-.3.18-.44,0,.17,0,.33,0,.47A.47.47,0,0,0,942.52,76.08Zm.8.58c.09-.43.18-.62.26.59A2,2,0,0,0,943.32,76.66Zm56.38,42.42.22-.12c0,.06,0,.13,0,.19C999.71,119.23,999.54,119.25,999.7,119.08Zm16.72,5.7a.8.8,0,0,1,.14.24,1.23,1.23,0,0,1-.15-.22Zm-8.65-28.39,0,0-.08,0Zm-2.14,9.83a2.39,2.39,0,0,1,.31.14,1.14,1.14,0,0,1-.18-.38l.07-.11.33.25c.29-.14.43-.21.5-.59l.34.34c.07-.08-.32-.45-.7-.81a2.53,2.53,0,0,0,.13-.22l.08,0c.18-.29,1-.07.55-.88.11.09.32.27.32.34.11-.12.77-.14-.08-.78h0c.28.18.27,0,.18-.22a2.09,2.09,0,0,0,.14-.17l.11.09-.09-.11c.38-.47.77-.91,1.18-1.33a2.13,2.13,0,0,1,.45.43l-.34-.54c3.23-3.19,7.35-4.76,12.45-6.9,1-.39,2.78,0,4.81.57-7.87,3.59-14.93,8.67-21.9,13.79.09-.26.2-.49.3-.73a.6.6,0,0,1,.43-.13,1.27,1.27,0,0,1-.3-.19c0-.11.1-.23.14-.34.54.27.47,0,.57-.1l-.39-.29C1005.24,107,1005.43,106.6,1005.63,106.22Zm-.73.84c0,.06,0,.12,0,.19l-.44-.34A1.81,1.81,0,0,0,1004.9,107.06Zm-.26.55,0,0,.15.08c0,.1-.07.22-.1.34a1.56,1.56,0,0,1-.35-.36C1004.53,107.73,1003.85,107,1004.64,107.61Zm-.75-6.29h-.06l0-.06Zm-.3,7.47a.73.73,0,0,0,.9-.25c-.06.2-.13.41-.22.64l-.48.36q-.15-.26-.27-.51C1003.54,109,1003.57,108.87,1003.59,108.79Zm-1.09,1.46,0,0,0,0a.85.85,0,0,1,0-.17,2.89,2.89,0,0,0,.31.15h0l-.29.21-.09-.11A.14.14,0,0,0,1002.5,110.25Zm.8,14.48v0h0Zm2.68,1.79c0-.14,0-.23.07-.25l0,0Zm.61-4.56a0,0,0,0,0,0,0s0,0,0,0Zm5.61,4.54a.94.94,0,0,0-.08-.2l.16,0a.36.36,0,0,0,.08.12Zm.16-.1s0-.09,0-.13l.22,0A.92.92,0,0,1,1012.36,126.4Zm2.57-1.19h0v0Zm.93-.28a.86.86,0,0,1-.11-.19l0,0,.07.08Zm1-.43a.46.46,0,0,1-.07-.16l.08,0A.34.34,0,0,0,1016.84,124.5Zm2.64-.8c.08.35,0,.23-.17,0l.13-.17A.63.63,0,0,1,1019.48,123.7Zm12.79-18.2c1.68.66-16.5,16.19-8.26,7-2.67,1.91-7.49,6.23-11.74,8.41l0-.08,0,.08c-.33.17-.66.32-1,.46l-.18.08a1.19,1.19,0,0,0-.08-.16.43.43,0,0,1,0,.19,10,10,0,0,1-1.94.61l-.07-.56c-.06.1,0,.25.06.56l-.25,0c-.09-.16-.14-.26-.2,0h-.07c0-.54-.19-.67-.24-.46l.13.46h-.22l0-1c-.18-.62-.27-.08-.39.36s-.26.76-.36-.3c-.07.55.06.56.09.9h-.15c-.08-.49-.13-1.17-.15-1.17-.11-.46-.21.72-.34,1.06a1.17,1.17,0,0,1-.2-.06,1.65,1.65,0,0,0,0-.53l0,.37c0-.38-.23-.37-.11-1a1.15,1.15,0,0,0-.06.8c-.11-.56-.28-.05-.41-.44a4.05,4.05,0,0,1,0,.48,2.44,2.44,0,0,1-.46-.35,8.13,8.13,0,0,1,.26-.85c-.31.67-.16-.52-.19-.66l.14-.28c-.08.17-.12.15-.15.14l-.16.73a.85.85,0,0,1,0-.45c-.1.27-.19.62-.29,1a1.07,1.07,0,0,1-.14-.16,1.75,1.75,0,0,1,.27-.69c-.06.1-.09.08-.1,0a1.06,1.06,0,0,1,.1-.25c.09-.68-.2.29-.43.74l-.06-.1c.13-.38.18-.66.13-.59s0,.26-.16.54c-.71-1.25-1.1-3.2-1-6.12-.68-.13-1.3,1.77-1.72,2.23s-.85.25-1.06-.27l.15.07c-.09-.1-.05-.26-.13-.43,2.16-1.54,4.45-3.11,6.92-4.67-6.74,2.34,9.5-6.13,12-8.17-2.18,3.54,5.48-2.27,11.82-5.66,2.71,1,4.49,1.71,3.19.53.15.08.29.22.47.34l0,0a5.28,5.28,0,0,1,2.27,2c-.09.18-.16.37-.24.56l-.53-.72q.27.39.51.78c-.06.15-.13.3-.19.46C1035.3,103.64,1033.49,105.56,1032.27,105.5Zm5.1-4.27-.09.1c.06-.15.13-.29.19-.44l0,0Zm.14-.36,0,0,.24-.55,0,0Zm.11-5.64a1.56,1.56,0,0,1,1.85,1.63A21.29,21.29,0,0,0,1037.62,95.23ZM1103.76,118c-.13,0-.1-.14-.06-.23l.37-.13A1.42,1.42,0,0,1,1103.76,118Zm3.46-1.32.09-.15.06,0A.65.65,0,0,0,1107.22,116.68Zm1.5-.49a3.87,3.87,0,0,1,.34-.21l.19-.06C1109.08,116.08,1108.94,116.32,1108.72,116.19Zm1.07-.21v-.11c-.16.09-.29.27-.49.28-.11-.18.07-.17.12-.28l.68-.21C1110,115.75,1110.17,116.09,1109.79,116Zm.35-.33.13,0a.34.34,0,0,0,0,.1A.24.24,0,0,0,1110.14,115.65Zm.33.28c.22-.15,0-.27-.1-.35l.28-.08s.09,0,.21.13A.61.61,0,0,1,1110.47,115.93Zm9.87-1.7h-.07l-.89.23a1.86,1.86,0,0,1-.7,0c-.17-.32.4-.11.22-.38a12.07,12.07,0,0,1-2,.49l.12,0c0,.48-.51-.2-.82.06.08,0,.08-.27.06-.22a4.58,4.58,0,0,0-1.58.44l.07-.13a5.56,5.56,0,0,0-1,0c-.07.13-.23.14-.11.3-.93-.54-1.55.46-2.35.22a89,89,0,0,1,10-2.23C1123.37,113.32,1121.82,113.84,1120.34,114.23Zm9.61.81a.93.93,0,0,0,.1-.1l0,.08A.24.24,0,0,1,1130,115Zm.48-.07c0,.06.07.12,0,.17l-.4.11Zm10.33.14a.54.54,0,0,1,.35-.1Zm.48-.14a.14.14,0,0,1,0-.17.58.58,0,0,1,.18.11Zm1.49-1,0,.07h-.25l-.06,0,.37-.1A.09.09,0,0,0,1142.73,114Zm3.46,0h0s-.08,0-.1-.1a1.64,1.64,0,0,1,.44-.15A.93.93,0,0,1,1146.19,114.06Zm.4,0h-.19a1.05,1.05,0,0,1,.29-.17A.42.42,0,0,1,1146.59,114.06Zm4.91.18h0a.33.33,0,0,0-.19-.17.22.22,0,0,0-.07-.06s0,0,0,0a.72.72,0,0,0-.29.06.48.48,0,0,0,0-.12c.19,0,.27,0,.29,0h0l.28.16S1151.5,114.21,1151.5,114.24Zm7.68.55a.51.51,0,0,0,.24.48c-.28-.12-.55-.24-.83-.34A1.5,1.5,0,0,1,1159.18,114.79Zm-1.58.12Zm-.55,0a.14.14,0,0,1,0,.06l-.29,0C1156.84,114.82,1156.94,114.74,1157.05,114.86Zm-2.6,1.18a.15.15,0,0,1,.17,0s0,0,0,.08A.62.62,0,0,1,1154.45,116Zm2.25-1.23,0,.06a6,6,0,0,0-1-.13A1.55,1.55,0,0,1,1156.7,114.81ZM1157,117l-1-.3a1.87,1.87,0,0,1,.83-.24c-.13.22-.15.1-.14.35.14,0,0-.39.3-.42.07.15.24.29.22.56l-.25,0A.19.19,0,0,0,1157,117Zm.4.11-.15,0c.06,0,.12,0,.17,0Zm.12-2a1,1,0,0,0,.34.05c-.09.15-.19.25-.39,0Zm0,2.05c.23-.08.34-.3.66-.22l0-.12c.29-.33.15.24.42,0v.39a3.81,3.81,0,0,1,.85-.3,2.2,2.2,0,0,1-.74.47c.14,0,.5.06.6-.11-.06,0-.15.1-.2,0a.77.77,0,0,1,.78-.31c-.17.68.63.35.8.84C1159.76,117.66,1158.61,117.4,1157.54,117.12Zm3.72-1.4a2.63,2.63,0,0,1-.74-.08,6.2,6.2,0,0,0,.74-.08C1161.28,115.63,1161.32,115.67,1161.26,115.72Zm.19-.08c-.1.11-.12,0-.15-.08l.15,0Zm.06-.12c.21,0,.41,0,.63-.06a1.13,1.13,0,0,0,.38.29C1162.17,115.7,1161.76,115.77,1161.51,115.52Zm1,2.26a.44.44,0,0,0,0-.13h0A.15.15,0,0,1,1162.54,117.78Zm.51-1.61a.5.5,0,0,0-.18-.29c.41.13.89.22,1.29.39C1163.71,116.37,1163.48,116,1163.05,116.17Zm2,.1-.06,0s0,0,0,.07a.34.34,0,0,0-.18.07l0,0-.54.17c-.13,0,0-.1,0-.16l0,0a.11.11,0,0,1,0,0,.16.16,0,0,0,0-.1.36.36,0,0,1,.23-.18C1164.79,116.19,1165.19,115.9,1165.07,116.27Zm1.71.69c0,.11.09.17,0,.25s-.2-.15-.16-.26l0,0c-.33.12-.64-.11-.93-.33l.13-.37c.45.71,1.45.45,2,.69A3.33,3.33,0,0,0,1166.78,117Zm1.23.4c0-.23-.28-.29-.12-.41a.43.43,0,0,1,.2.22A.28.28,0,0,1,1168,117.36Zm.73-.15-.1-.06h.12Zm2.51.87s0,0,0,0l.07,0Zm3.57.73a.25.25,0,0,1-.15,0l.15,0Zm.18.07h0l0,0v-.16h.15a.05.05,0,0,1,0,0Zm.19.08h0l.11,0A.25.25,0,0,1,1175.19,119Zm1.08.48a3,3,0,0,1-.24-.42.53.53,0,0,1,.38.25A.28.28,0,0,0,1176.27,119.44Zm.39,1.62-.09,0a.15.15,0,0,1,.09,0Zm6,.49a.18.18,0,0,1,.06.1l-.13,0Zm-.1.15.11,0h0l-.1,0Zm-2.92-1.54a1.06,1.06,0,0,0,.09.25.84.84,0,0,1-.25-.13Zm-1.33-1.35c.06,0-.08-.15-.16-.26l.29.12C1178.39,118.77,1178.34,118.84,1178.27,118.81Zm.53,0,.17,0-.18,0Zm.16,3.3.24-.06-.07.13Zm2.25.68a.74.74,0,0,0,0,.29l-2-.88c.21-.18.29-.26.54-.24a.11.11,0,0,1,0,.15c.13.09.23-.18.4,0l-.15.13c.2.1.22,0,.41-.13s.38.22.32.46c.08-.12.28-.26.38-.15a.21.21,0,0,1-.12.15c.28.31.65-.09.78.27a.28.28,0,0,0,0,.17A2.86,2.86,0,0,1,1181.21,122.79Zm.68.57h0l-.36-.16a.39.39,0,0,1,.4.06A.34.34,0,0,1,1181.89,123.36Zm.06,0h.06a.46.46,0,0,1,.07.07Zm.16-1.66s0-.08,0-.14l.14,0C1182.2,121.71,1182.15,121.77,1182.11,121.75Zm.23,1.83h0l0,0Zm.23.1c.07-.08.13-.08.1-.27,0,0,0,0-.12,0h-.06l0,0-.28-.1c.14-.09.28-.15.34,0a4.68,4.68,0,0,1,.34-.33c0,.38.16.67.14.89Zm1.86-1.32a1.16,1.16,0,0,1,.32.08c-.15.15-.31.3-.43,0Zm-1.14,1.63c.33.07.67.2,1-.08.13,0,0,.19,0,.27s-.14,0-.2,0c.25,0,.58.24.79,0,.17.27-.28.22.07.34l-.1.07a.66.66,0,0,0,.16.22C1184.61,124.57,1184,124.3,1183.29,124Zm2.17-.94c-.27,0-.31-.15-.31-.33,0,.06.1.1.15.17s-.08-.11-.07-.16a3.53,3.53,0,0,0,.32.21A.29.29,0,0,1,1185.46,123.05Zm1.09.62a.28.28,0,0,1,0-.09,1.64,1.64,0,0,1-.21.44c-.1-.06-.3.08-.22-.15.06,0,.11,0,.17-.07l-.15,0c.06-.35.2,0,.32-.22-.27,0-.64.05-.77-.12.13-.31.44.13.36-.25l.2.25a.63.63,0,0,1,0-.16l.3.14a.5.5,0,0,1,0,.12.24.24,0,0,1,.08-.09c.24.11.49.22.72.35C1187.1,123.83,1186.88,123.53,1186.55,123.67Zm.87.28s0,0,0-.06l.13.08A.19.19,0,0,1,1187.42,124Zm.64.44c-.14,0-.16-.1-.13-.17l.15.14S1188.07,124.38,1188.06,124.39Zm.71.62v0h0S1188.78,125,1188.77,125Zm.07.32a.35.35,0,0,1,.24-.35l-.1.22h.38C1189.19,125.27,1189,125.26,1188.84,125.33Zm.79.14.06,0s0,0,0,0Zm.84,2.49,0-.09c.06.08.2.16.29.25Zm1.85-.27s0,0,0-.07a.2.2,0,0,0,0,.07Zm0,.21v0Z"/><path class="cls-1" d="M942.11,76.87s0,0,0,.06h0v0Z"/><path class="cls-1" d="M940,77.78c-.23-.14-.63.2-3.15,4-3.89,3.92-1.71,0-.7-2-3.22,5.67-9.36,10.48-13.73,14.18l1.38-1.7c-2,2-4.76,4.14-.86,2.39-1.93,1.59-3.45,3.06-3.7,2.68,1.89,3.21-4.56,9.87-8,10.67,7.65-5.4.22-1.3,3.61-4.7-1.77,1.47-4.27,3.34-2.78,1.59-8.72,5.33-5.5,10.06-15.51,12.62,7-1.9-10.05,4.86-11.87,5.3,7.36-1-7.93,7.31-3.74-9.69,6.3-8.9,9.8-10.44,12.84-19.39-2.75,4.76-6.16,8.44-8.6,12.13,1.31-2.57,3-5.22,4.71-8.06a90.3,90.3,0,0,0-6.65,9.23c.32-1.63,2.41-4.12-.26-2.21,5.78-9.62,21.12-19.08,7.81-28.84-4.1-2.75-14.78-9.62-19.86-7.69l.08,0c-5.26,17.41-17.38,33.79-32.42,46.25,1.43-2.77-.84-1.3,2.22-4.13a31.71,31.71,0,0,1-12.23,7.24,5.61,5.61,0,0,0-.64.12l.47-.06a44,44,0,0,1-9.23,1.57c-2.65-2.17-5-7-5.66-11.74-.2-5.17.47-9.36,5-15.79.18-.27,2.85-1.12,2.72-1.37a2.66,2.66,0,0,0,2.62-2.22c-.46.14-2.45-2.2-5.07-2.68s-5.18.27-7.41.72c0,.24.07.49.11.75a5.47,5.47,0,0,0-.31-.74l-1.34.08c-.3-.28-.62-.57-1-.86l1.1-.64c-2.18-1.46-6.07-.44-10.77,2.14-4.51.33-9.22.77-14.48,1.51C787.42,89.81,774,91,772,88.84c-5.3,2-18.05,2.39-22.47,6.31,2.8-4.66,13.71-4.36,18.61-6.56-4.41.53-13.29,1.88-17.78,3.6,2.09-.46,4.55-1.34,6.78-1.42-4.71,1.8-9.21,1.64-8.84,8.2-2.45,9.62-10.51,23.82-20,31.44-10.14,15-36.12,19.78-45.55,10.51,1.76,1.31,4.8,1.71,2.07-1.19,2.11,3.89-3.89-2.72-3.15-.41a1.27,1.27,0,0,0,.15.56,12.41,12.41,0,0,1-2.52-8.89c2.24,4.38.43-.11.31-1.74,1.18-4.17-1-6-.95-10.51,10.72-8.48,21.73-18,31.65-31.91-4.56,5.09-3.37-.6-.64-1.87-.16,0,0-.53.9-2.24,3.56-4.29,3.53-1.94,1.88.9,18.07-13,61.7-108.57,5.35-77.41-9.22,7-16,15.62-21.77,26,6.48-6.83-3.5,6.85-1.6,2.39C686.8,50,674.31,71.62,672.57,88.46l.1-.84a111.67,111.67,0,0,0-4.34,25.88c-21.87,18.9-64,43.83-90.67,20.73a11.42,11.42,0,0,1-3.4-2.37c1.09.17,2.17-.82,12.47-8.5,1.33-1,2.59-2,3.74-2.76,1.85.62-10.25,8.12-3.49,4.86q-3.66,2.31-7.46,4.37c6.89-1.55-4.55,2.67,1.85,1.59,8.08-6.4,17-9.75,19.28-17.79,20.51-16.84,21.11-21.79,33.3-40.91.13.9-3.61,6.86-3.13,6.52,2.61-2.85,3-4.21,3.33-5.38,10-12.42,14.24-27.14,13.89-39.75,0-.24,0-.47,0-.71,0,.25,0,.47,0,.7-.7-25.07-19.72-41.79-49-15.44-4.82,4.18.29.83-1.51,3.38-2.45,2.62-3.73,3-2.48,1-7.34,8.94-17.69,26.75-23.49,36.92.21-.76.45-1.51.68-2.26-4.33,7.93-1.95,10.31-6,18.13l.34-1.63c-9.65,22-9.18,42.05-1.9,56.63-7.48,4.86-15.55,8.9-23.66,9.17-10.23,4.76-61.36,11.36-72.53-16.6l-.1-.14c1.35-.18,2.73-.4,4.23-.64l2.29-.08c.85-.62,1.71-1.18,2.58-1.75-1.44.86-12,2.61-5.79.12h-.25a6.58,6.58,0,0,1,1.09,0l.19-.19c.05,0,.1.07.05.1.23,0,0-.1.09-.18s.18.08.11.13a2.52,2.52,0,0,1,1.47-.31l-.07.06c.32,0,.31-.37.62-.26l-.05,0a6,6,0,0,1,2-.07c.07-.24.68,0,.69-.29a2.68,2.68,0,0,0,.86.25c.15,0,.2-.23.38-.28l0,.17.23-.2.15.19.16-.06c-.07,0-.15-.07-.14-.12a.72.72,0,0,1,.67.14l.61-.2c0,.07-.11.1-.19.15.32-.2.08.18.37,0,0,0,0-.11,0-.14a1.22,1.22,0,0,0,.76,0l0,.12c.47,0,1-.12,1.5-.16a.14.14,0,0,1,0-.27l.08.17c.09-.12-.17-.06,0-.21.19,0,.14.2,0,.27l.24-.08s0,.08-.05.15c.09-.12.42.15.55,0l0,0c.52,0,.75-.12,1.18-.15,0-.16.17-.14.29-.27a5.53,5.53,0,0,0,1,.11c.27-.09.07-.14.19-.23,0,.14.4.11.21.22a6.63,6.63,0,0,0,1.15-.2c-.07-.05-.14-.07-.1-.12s.24,0,.22.11l0,0c.63-.24,1.5.34,2,0l0,0,.53-.17c.24,0-.14.11,0,.2.57-.25.91,0,1.38-.15.37.41,1.29,0,1.79.21l0-.1c.13-.1.15,0,.25.07s-.14-.08-.06-.14a15.69,15.69,0,0,1,3.33.26c.41,0,.24-.52.75-.27l-.15.18c.82-.22,1.67,0,2.48-.12-.05,0-.06.09-.13.09.16.14.62,0,.63-.08s0,.1.1.16.43-.16.52,0-.05,0-.09,0c.12-.06.52,0,.42-.12.3.08.58-.05.81,0,.17-.17.51.1.57-.14,0,.25.52.22.72.12-.07.07.16.09.08.19.21,0,.41,0,.38-.16.38.33.82-.19,1,.21.65-.09,1.25-.14,1.84-.17,0,.26-.65,0-.64.26a4.18,4.18,0,0,1,1.43-.17c.14,0-.09.1-.14.14.56-.07,1.06.12,1.55,0,0,0-.05,0-.11.06.1,0,.23.06.22-.06l-.09,0c-.14-.18.41-.31.43-.4-.19.32.48.13.18.52.07,0,.15-.06.14-.14s.12.08,0,.16c.35,0,.24-.17.55-.14,0,.06-.07.08-.11.14a.69.69,0,0,1,.59-.12s0,.08-.07.07c.46,0,.8-.22,1.29-.07-.17.23.16.1.16.31l.28,0-.1-.12c.23,0,.46-.09.65,0l-.18.06.44,0-.24-.11c.25-.08,0-.27.31-.18-.07,0,.23,0,.34.17h0a.45.45,0,0,1,.41,0c0,.07-.06.22,0,.27.13-.16.55,0,.71-.15-.05,0-.07.15-.05.17l.11-.13c.1.06.12.08.09.17.32.06-.07-.28.3-.12,0,0,0,0-.09,0,.38.1.76,0,1.11.11.08.22-.32,0-.22.2a7.57,7.57,0,0,1,1.58,0l-.09,0c.11-.29.35.2.62.1-.06,0-.1.15-.08.12a4.11,4.11,0,0,0,1.23,0l-.07.07a7.08,7.08,0,0,0,.73.18c.07-.07.19,0,.13-.16.6.54,1.31,0,1.84.42-.07,0-.18,0-.12,0h.51c0-.13,0-.09-.14-.21a.46.46,0,0,1,.35-.07c-.24,0,0,.2,0,.29s0-.08,0-.12c.23.28.09-.25.42,0l0,.06c.14,0,.28-.08.42,0s-.15,0-.18.16c.2,0,.45-.21.6,0a3,3,0,0,1-.31,0c.17.21.2.17.35.23h0l.33.14-.08-.06c.32-.35.53,0,.92-.18-.38.18-.08.13-.14.29s.2.14.15.18c.19-.1.25.16.52,0,0,.06.17,0,.11.16.22,0,0-.1,0-.16.36-.14.71.37,1.22.21s.53-.19.92-.21c.11.11-.14.18-.14.18a.74.74,0,0,0,.54.11s0,.09,0,.16.14-.18.33,0a.88.88,0,0,1-.2.18c.19,0,.39-.08.58-.09,0,.11-.14.12-.22.17.22,0,.56,0,.66-.11l-.13-.08c.08,0,0,.14-.05.15a.16.16,0,0,1-.24-.16h.14c-.07-.34-.55,0-.81-.13l.16-.21-.31.14c-.05-.07-.06-.21.08-.22-.17-.15-.19,0-.33-.11s0,0,0,0l-.2,0s0-.17.11-.11c-.31-.21-.58.06-.67-.14h0c-.48,0-.08.16-.47.29l-.15-.47-.08.16s-.14,0-.11-.11c-.2.08,0,.08-.11.17-.2-.21-.65,0-.65-.33-.11.12.2.14-.06.19,0-.31-.3,0-.49-.17.1-.14.28,0,.09-.2-.17.23-.4-.13-.59-.11,0,.06-.06.08-.12.09s.08-.09.12-.09a.24.24,0,0,0,0-.12s-.09.14-.12.21-.38-.07-.6-.06c0-.06-.54-.21-.81-.33v0c-.09.2-.37.11-.59.12a.23.23,0,0,1,.2-.2l-.2,0a.32.32,0,0,1-.25.08l.07-.15c-.26,0-.56.09-.88-.07,0,.14.21.44-.17.48,0-.07,0-.21.11-.23s-.12,0-.18,0l.17-.11c-.15-.08-.1.1-.22.07s-.08-.1,0-.18.1.06.15,0a.65.65,0,0,1-.34-.22.12.12,0,0,1-.12.15c-.27,0-.07-.15-.22-.23-.07.07-.23,0-.26.13-.08,0-.08-.09-.1-.14s-.65-.07-.52.13h0c-.47.1-.92-.23-1.37-.23V120a2.89,2.89,0,0,0-.8,0c-.08,0-.18-.13-.13-.19a.71.71,0,0,1-.52-.06c.21-.07-.06-.1.21,0-.25-.09-.3-.18-.61-.06.12-.13-.17-.21-.3-.18l.17.13a2.18,2.18,0,0,1-.39,0l.09-.18c-.52-.29-1,.27-1.39-.16-.16.11.28.12.13.26-.24,0-.47-.35-.55-.36-.33-.14-.35.23-.7.12,0,.07.06.26-.21.29s-.28-.32-.11-.35.08,0,.08,0,.19,0,.1-.11l0,.06c-.12-.08-.46-.11-.37-.21-.19,0-.09.1,0,.15a5.66,5.66,0,0,0-.82-.16s.09.12,0,.12c-.48-.13-.23.1-.56.1s.09-.23-.25-.18c-.19-.08,0-.18.06-.23-.31.11-.55-.13-.72-.17l.16,0a.72.72,0,0,1-.25,0l.07.14c-.09,0-.17,0-.16-.09s.05.22-.15.33c-.12-.08-.38,0-.41-.15.39.1,0-.18.31-.18a.41.41,0,0,1-.24,0s0,0,0,0c-.36-.2-.19.18-.57.14.05-.09-.08-.2-.14-.18.15,0,.06.17-.09.23-.24-.1-.28,0-.41,0l.15,0c-.06.09-.18.07-.36.08,0-.08.16,0,.1-.08-.2.16-.41-.22-.69-.12-.12-.08,0-.19-.11-.25-.31.11-.31-.16-.64-.07.08.14.1.11-.13.22l.53-.06-.35.18c.16,0,.34-.07.43,0-.17.1-.15.07-.08.18-.2-.21-.44.09-.67-.06l0-.33c-.37-.17-.68.13-1.16,0l.15.06c-.07.13-.3,0-.46,0,0-.11-.07-.16-.13-.23,0,.08-.36,0-.42.18l-.2-.16c-.39-.08-.47.29-.84.23.12-.11-.05-.2.21-.27-.13,0-.24,0-.25,0-.07-.08-.35.12-.46,0-.06.05-.08.16-.22.14s0,0,0,0-.22.06-.11.19c-.37-.36-1.08,0-1.4-.32-.28,0-.61,0-.86,0,0,0,0-.06,0,0-.34-.12-.22.3-.61.18-.19-.19.21-.09.09-.17,0-.36-.48,0-.73-.18l.06,0c-.2-.13-.49.12-.82.08a.06.06,0,0,0,0-.06,2.29,2.29,0,0,1-1,.28c.1-.14.14-.07.09-.22-.15,0,0,.24-.25.27-.09-.07-.29-.14-.32-.3h.27c-.13-.2-.35,0-.49,0l0-.08c-.41,0-.42.24-.86.22l.05.07c-.24.21-.2-.13-.44,0l-.07-.22a5.8,5.8,0,0,1-.84.25,2.68,2.68,0,0,1,.7-.34c-.16,0-.54,0-.62.12s.14-.07.21,0a1.12,1.12,0,0,1-.76.25c.05-.43-.82-.12-1.05-.44a7.9,7.9,0,0,1-1.75,0c.24.33-.19,0-.14.35-.14,0-.2,0-.22,0h0l-.46-.19c-.11-.1.14-.08.12-.16-.33,0-.14-.14-.36-.23.05.12-.11.18-.3.14l.27.15c-.46.19-.41-.28-.87-.09l.15-.11c-.24.06-.88,0-1.11.3,0,0-.1-.12,0-.15-.58,0-1.26.34-1.71.2l0-.09c-.11,0-.18.16-.31.09s0-.09,0-.09-.27.16-.41.12l.11-.1c-.56-.09-.84.26-1.3.34,0-.24-.45-.31-.67-.33v0a7.05,7.05,0,0,0-1.67.42c-.39-.24-1.27,0-1.88-.13.1,0,0,.19-.1.23s-.37.19-.37,0h.05c-.12-.21-.41-.14-.63-.12v.3c-.63-.37-1.52.3-1.88,0-.13.08-.31.1-.44.19v-.16a4.67,4.67,0,0,0-1.07.09l.08-.12c-.27,0-.29.48-.54.51l-.1-.22a3,3,0,0,0-1.43.18.11.11,0,0,1,.09-.12c-.23,0-.89,0-.77.26,0-.21-.49,0-.74.16l0-.15c-.19.22-.19.27-.48.36-.08,0-.08-.11,0-.08-.25,0-.17.16-.47.12l.1-.11c-.25,0-.22.07-.34.2s-.47,0-.53-.11a.28.28,0,0,1-.29.19s0-.09.05-.1c-.43-.06-.59.26-.89.15a.1.1,0,0,0-.06-.08,3.74,3.74,0,0,1,.57-.06c0-.14-.29-.13-.11-.35-.2.14-.52.42-.79.4l0,0,0,0a.25.25,0,0,0-.16,0,.83.83,0,0,0-.22,0c-.05-.11-.31,0-.44,0,0,.15-.14.15,0,.26,0,0,0,0,.11,0l.06,0h0l.32-.06c-.09.1-.19.18-.34.12-.06.1-.11.22-.15.27-.21-.18-.57-.25-.64-.37-.39.15-.94.2-1.14.53-.11,0-.14-.06-.19-.1s.14,0,.16-.09c-.21.1-.66.13-.68.34-.3,0,.13-.21-.26-.12l0-.07a.9.9,0,0,0-.52,0c-14.35-24.47,25.57-9.52,30-14.81a2.41,2.41,0,0,1,1.79-.9c19.28-.66,21.73-2.6,40.17-1.65a2.3,2.3,0,0,0,.74-.07c6.26-1.68,12.06-2.69,12-3.25a10.69,10.69,0,0,1-.13-1.44l.36-.26-.35.06a2.09,2.09,0,0,1,.43-1.19c.94-1.2-.61-2.39-8.37-2.22a3,3,0,0,0-.51.07c-2.26.55-8.51,2.48-10.36,1.32,2.26-.23,4.51-.52,6.76-.77-6.29.44-11.49.58-17.15,2.09a2.36,2.36,0,0,1-2.29-.41c-.17-.18-.86-.29-2.64-.28-3.52,1,3.15,1.29-1.81,2.15a2.39,2.39,0,0,1-1,0c-2.69-.76-10.45.07-4.85-1.29-14,2.54-20.44.58-32.34,1.73a2.26,2.26,0,0,1-1.94-.56c-1-1.13-11.68-.1-16.63-.57a2.37,2.37,0,0,0-2.6,2.34c-.06,5.87.93,15.9,2.68,20.37-4.55.54-9.2,2.71-13.09,2.57l.65-.23c-8.13,1.43-4.78,6.72-14.93,3.3,0,1.61-3.78,2.48-3.82,1.73-2,2.63-5.58,2.39-10.32,4.46a16.07,16.07,0,0,1,7-3.53c-2.67.27-1.74-.6,0-1.18l-.85.17c8-5.72,9.7-10.49,9-14.2.15,0,.28,0,.19-.17l-.22,0a9,9,0,0,0-.81-2.25c.6-.33-.13-.49-.15-.87h0a.36.36,0,0,1,.05-.19l.1,0c.16-.43-.67-.44-.87-.84a.33.33,0,0,0,.13-.08l-.2,0c0-.08-.08-.13-.2-.12a.38.38,0,0,1,0,.1,1.36,1.36,0,0,1-.25-.07l-.09-.12.05-.06-.14-.05-.27-.31,0,0,.45.09c-.13-.17-.51-.5-.77-.4l-.18-.19a.91.91,0,0,1,.14-.25,2.91,2.91,0,0,1,.27.24c.26-.54-.36-.32-.43-.51l.18-.16c-.31-.22-.59-.09-.86-.08a1.13,1.13,0,0,1-.38-.6c.06.12.09.26.17.27.07-.21,0-.41-.16-.39a.66.66,0,0,1,0-.14,1.13,1.13,0,0,1-.49-.2h.09a1.58,1.58,0,0,0-.32-.16,5.23,5.23,0,0,0-1.15-1,1.21,1.21,0,0,1-.08.29l-.31-.26a.27.27,0,0,0,0-.23.24.24,0,0,1,0,.18,3,3,0,0,1-.4-.38.08.08,0,0,0,0,0c-.15-.11-.17-.2-.16-.29.18-.13.89-.06,2.4.22-4.41-2.65-30.47-9.16-28.61-4.43.4.24.47.45.32.63l-.06,0c0-.23-.36-.08-.52-.08,0,.26-.13.28-.05.42l-.25.07a.34.34,0,0,1-.07-.15.46.46,0,0,1-.1.18h0a.86.86,0,0,1-.29-.37,2.34,2.34,0,0,1-.4.11c-.07-.16-.25-.25,0-.56-.26.21-.7.64-1,.53l-.05-.09,0,0a.19.19,0,0,0-.2,0,1,1,0,0,0-.26-.08c0-.21-.38-.1-.54-.11,0,.29-.19.25,0,.48,0,0,0,0,.14-.05l.07,0v0l.4,0c-.13.15-.26.27-.44.12,0,.06,0,.11-.07.17h0s0,0-.14,0h-.06l.06-.09a.84.84,0,0,0-.44-.11.7.7,0,0,1-.25-.31l-.1,0c.12-.23.66-.53,1.86-.92a18,18,0,0,1-4.12.06c1.15-.28,2.31-.53,3.48-.79-4.67.68-10-.64-3-.59-8.72-1.45-12.34,1.24-20.12-.08-5.11.77-3.63,4.4-9.87,4l2.63.63.14,0c3-3.78,7.56,5.15,6.25,1.49q.24.35.45.69a.8.8,0,0,0,.11.23c0-.06,0-.1-.06-.15a15.88,15.88,0,0,1,1.43,2.9,7,7,0,0,0-.65-1.14,7.56,7.56,0,0,0,.9,1.88c5.61,18-28.2,34.18-41.85,36.86,4.3-1.73-1.33-.14,4.49-1.59a108.51,108.51,0,0,1-13,1.62c1.31-.71-3.38-2.31-3.51-3.6a5.35,5.35,0,0,0,1.36,2.51c-7.35-6,2.62-10.75,7.74-16.4l-2.38,1.29c4.23-3.85,6.81-8.29,10.3-11.7-.72,1.23-1.51,2.41-2.3,3.6,2.25-2.63,4.54-5.62,6.51-8.45-1.19,1.34-2.88,3.16-4.14,4.4,2.89-5.1-1.6-.88,3.08-6.31-1.22,1.3,5.49-6.34,3.93-3.17,1.45-1.62,2.26-2.63,1.55-3.41,2.29-5.46,3.31-6.22-2.57-2.64-1.42-2.62-2.49,2.92-6,3.07-.93-4.13-11.61,7.69-12.86,10.48,1.9-4.32-5.75,5.78-5.18,5.23,1.93.29.34,1-1.16,3.78a13.3,13.3,0,0,1,.59-1.9c-3.59,5.2-4.28,14.39-11.82,14.87-.17-.22-.56,0-3.67,2.19-4.27,1.87-1.45-.6-.08-1.82-4.42,3.56-10,5.1-15.17,6.69,1-.58,2.1-1.13,3.13-1.73a38.68,38.68,0,0,1-5.11,2.35c.72.07,1.47.09,2.21.11-6.95,1.48-1.54,1.09-5.39,3.85-1.9.15-7.21,1.88-8.45,0,4.47,1.08,1.78-.62,4-1.24-.45.2-4.27,0-2.23-.36-26.31-5.57.76-22.87,11.68-36.35-.55,1.06-.29,1.35-1.56,2.75,9.18-9.78,20.16-22.49,23.3-30.25C317,68.88,334,52.53,329.58,35c1.84.8-3.34-4.8-1.21-3.62-3.28-3.63-12.76-3-14.07.89-56.39,46.55-41.62,63-62.78,103.32-.38-.31-1.8.6-1.35,1.63-.14,2.65-10.52,7-9.7,5.49-15.25,10.12-38.21,18.77-24.83-11.21-1,3.25-4.58,10.51-3,13.92-.93-2.3,2.59-9.56,3.19-11.47a28.57,28.57,0,0,1-2,4.07c8.31-17.79,17.4-32.94-10.51-36.13a1.94,1.94,0,0,0-.66,1.23c0-.07,0-.13,0-.22-1.14-.41-3.11-1.75-4.55-.47,1.25,1.49,3.88,3.77,4.45,1.83,0,2.38.68,5.26-2.48,3.89-2.45,5.26-5.58,11.87-9.52,16.94,5-3.73-4.74,10.33-2.87,7.44l-.61.46c-.34,0,.44-1.41.75-2.39.38-1.72-.63-.77-2.06.36,3.14-2.07-2.26,4.4-.16,3.15-3.76,2.85-9.78,7.24-5.53,2.08-4.71,2.72-7.12,4.26-12.3,7.4a54.48,54.48,0,0,0,5.55-2c-8.14,6.19-8.35,2.75-17.42,7,.94-.55,1.89-1,2.8-1.63-4.73,1.9-12.31,4.61-13.35-2.54.39-1,1-1.63,1.11.16,9.34-43.35,1.53-26.59-17.24-3.83.5-.77.95-1.59,1.41-2.37-5.74,6.53-27.87,25.93-14.91,6.39,7.87-8.7,20.22-16.4,28.17-25.47-11.52-14-37.19,19.18-53.8,19.91,4.46.63-14.64,7.69-8.9,4.64C56.7,151.42,15.7,164,9.05,125.61l1.23,1.82c-11.68-24.9,17-55.39,28.8-67.6.78-3.11,10.24-12.64,7.52-8.72,4.64-3.06-1,0,4.77-3.52,29.45-19.9,31.08-14.36,58.23-23a5.26,5.26,0,0,1,1.58-.5c2-.66,4.18-1.39,6.51-2.22-1.94.66-7.67,1.34-11,2.24,22.3-10.39,64.16,6.56,24.3,11-.45,4-10.64.61-10.51,6.15-.91-2.17-7.79.54-6.55,1.78-1.42-1.27-2.72,3.53-3.07,2.17-1.61.2-1.41,2.7-3.55,1.34.36.74-.77,1.78-.57.6-1.45.05-1.64,2.25-2.76.94,2.89-1.14.68-.33.62-2.31-.54,2-1.41,2.42-2.9,2.57h-.16l.06.06c-.12.09-.49.26-.45,0l.06,0c-3.84,0-4.2,2-8.09,2.63.16.24,0,.8.5.74-8,2.9-7.91,5.59-13.19,6.33-2.22,2.56,3.32-.45-.44,2.92-2.15.15-8.69,5.88-5,1.58-9,9.69-16.12,13.23-23,24-15.6,7.48-7.58,31.89,13.54,26.63a5.34,5.34,0,0,1-2.22.52c6.54,3,26-12.06,19.72-3.53,2-1.39,7.73-3.58,6-3.86,7.31-1.12,5.49-.88,12.25-5.08,6-1.94,2.35.85,8-2.81.88-.29,1.09-.2.94.08,1.27-2,1.81-4.33,5-4.24,11.37-4.73,19.3-16,28.08-24.63-5,.86,2.29-6,2.38-5.68a6.19,6.19,0,0,0-1.37,2.62c.49-1.43,4-4.85,1.72-1.28-4.68,7.51,6-8.35,7.47-10.76,4.76-5.75-5.14,8.53-.32,3.34-1.4,1.7-3.42,4-4.94,5.58,5.24-3.1-3,3.43,2.08.77,10.44-7.75,7.35-24.23,11.83-29.8,13.32-4,26.11-2.41,37.2-6.12,2.69,1.41,19.7.56,20.1-2.62.35,5.49,6.74-1.81,8.46,2.58,1.64-1.68,1.52-1,3.26-1-1.31-.63-.08-2.55,1.22-.8,2-1.81.45,2.33,3.33-.13-.65,2,.6-.92.47,1,1,.17-.26-1.41.89-.76-.39,1.44,5.09-1.45,2.49,1.48,5.65-2.53,8.35,1.36,12.32-.82,1.39,2.42,5.68-1.2,5.23,1.45,2.75.18.12-1.63,2.2-1.83-.87.39.33,2.22.25.86.67,1.28.27-1.35,1.28-.43-.32.82.8-.37,1.19-.07.09.8-.48.32-.58,1,3.11-1.78-.17.34,1.94.79,1.31,1,2.38-3.26,3.52,1.29,2.69.63,8.45-1.95,9.66.69,1-1,1.24-.33.35.61.93-.44,2.79-1.08,1.08.25.53,0,2.6-.28,1.82-1.1,0,1.68-1.9.16-.56-.11,0-2.24-3.63,1.34-1.86-1.47-.72.93-1.73.76-.7-.31-.34-.45-2.31-.37-1.16-1-3.75-1.78-3.12,4-3.84-1-.75,2.13-2.74-.16-3.15.9-1.08-2.37-4.11-.36-7.64-2.88-2.28,2.37,0-.67-5.09-.3.74,1.27-1,3.87-.17,1.32-.87.57-.31-.24,0-.53-1.24.61-.29-.23-1.39-1.35,0,2.05-2.84-1.72-3.73.84h0s0,0,0,0l0,0c-5.28.38-11.8-1.41-11.16-2.35-3.53-.79-3.58,2.36-5.53-.42-1.24.5-4.35,3.63-3,1.25a.24.24,0,0,0,.22-.2l-.15.08c.12-.21.25-.44.43-.73-2.07.14-3.14-.74-5.16,1.16-.21-1.82-3.2-1.94-2.41-2.92-.71.54-3.3,4.22-1.79.59-2.24-1.18-1.13,1.59-2.49.18.19.58-1.37,1.14-1.72,1.22.53,3-4.4-3.88-5.14-.1l1.58-.52c-2,2.25.38-.49.09,1.68-5,0,1.33-3.12-5.55-1.27,1.22,1.07-1.36.73-1.39-.44-.42.11-1.36,1.56-1.87.42-5.35,3.43,1.13-2-4.66,1.22,0,.29-.65.43-.24,1-5.81-2.27-7.64.72-10.71-1.11-2.26.06-7.88,4.74-5.83,1.05-2.26-2-4.2,3.95-5.42.71a12.45,12.45,0,0,1-2.34,1.71c1.18-1.54,2.49-3.09.08-1.19,1,2.74-10.08-3-11,2.38-2.3-.39-1.27-3.3-3.55-1.81,2.52,2.07-1.1-.25-1.74.64.8-.66-19.27-10.26-11.16-9.3C130.81,6,74.51,19,49.9,38.72c-9,7.69-17.87,17.2-26.45,25.12l1-1.65C20,66.32,20,71.11,15.6,75.26L16.24,74C-11,103-4.55,162.32,39.9,161.66c-9.72-1.53,11.87-1.2,13.18-.59,2.9-.37,19.76-6.28,11.77-2.84a169.92,169.92,0,0,0,25.22-8c-1,3.27,13-5.95,14.7-5.26-7.45,16.26,15.94,22.17,21,8.58,0,.9,6.33-4,5.56-2.71,3.85-4.67,4.86-3.4,6-.62,15.79,26.36,67.72-13,69.89-38.92.56.43,1,1,1.46,1.27-1.33-1.6-1.7-1.12.48-1.09,15.9,2.7-1.37,17.92-4.07,25.9-7.86,29,25.34,27.73,40.18,11l-2.25,3c9.56-5.69,14.3-17.09,20.23-4-4.38.32,9.06,8.9,1.92,6.92,2.86,1.53,8.88,2.18,4.23,2.34,4.09,2.86,17.74-2.92,12.59.46,4.49-1.85,8.6-4.22,13.34-6-.22.32.34.36-.62.86,7.26-1.42,16-14.75,19.39-8.75-3.22-9.24,4.55,6.85,5.25,7-1.52.36-5.21-5.7-5-3.55,9.35,12.39,27.72,1.29,38.06-3.92-6.15,1.69,8.82-4.84,10.42-7.5,1.64,2.69,17.95-14.53,15.67-23.14a12.57,12.57,0,0,1,.54,1.84c1.32-6.48-3.91-9.2-7.63-9.67,3.26.09,6.55-.09,9.85-.33a1,1,0,0,0,.21.12l.24-.15h.16l.08.1-.31,0c.19.14.29,0,.41-.09a.3.3,0,0,0,.16.17l.25-.25h.09c0,.1-.1.2.1.25.09-.1,0-.18,0-.26l.23,0c.06.08.08.11.21,0a.13.13,0,0,1-.08.19c.18-.11.48-.06.56-.25.2.19.61-.08.62.26a.93.93,0,0,1,.46-.3c-.27.42.63,0,.58.45.2-.38.8-.19,1.19-.42,0,0-.06.1-.1.08.23,0,.3.14.45.22,0-.3.29-.4.48-.58h.07a.05.05,0,0,1,0,0h0c.17.26-.19.35-.09.63,0-.27.46-.28.36-.5.22.19.18.09.31.37,0-.43.19-.08.35-.35.32.21.1.41.43.27.17.13-.12.29-.12.29.34,0,.14-.33.2-.52.4-.11.2.24.35.41.25-.09.43-.4.62-.4,0,.06,0,.08,0,.15.15-.16.38-.14.62-.17a.27.27,0,0,0,0,.09s0-.06.05-.09a.63.63,0,0,0,.42-.21.2.2,0,0,1,.05.09,1,1,0,0,1,0-.17c.11.09.11.07.2.29,0-.4.2-.06.37-.31a.45.45,0,0,1,.17.2l-.31-.1c.31.52-.23,0,.06.52.49.1.53-.17,1-.09a.27.27,0,0,0,0-.14c.18-.11.34-.28.49-.27s.05.08,0,.14.05,0,.08,0c.14.21.23.46.5.2,0-.08.08-.2.13-.3a.55.55,0,0,0,.38-.15h0l-.11.39a.36.36,0,0,0,.25-.08h0c.11-.11.14-.28.3-.28a.85.85,0,0,1,.07.16c-.1,0-.21,0-.16.08l0,0s0,.1.07.23c.48.13.54-.14,1,0a.38.38,0,0,0,0-.29l.47-.13c.23.21.26.7.62.4a1.36,1.36,0,0,0,.1-.21,2.56,2.56,0,0,1,.39,0l-.07.21a.31.31,0,0,0,.35-.18l.23,0c-.08,0-.15,0-.11.06s.22.09.28,0l.22.05,0,.11.25,0,.36.11.17-.2.15,0a.11.11,0,0,1,0,.12c.17.07.13,0,.11-.13l.18,0a.17.17,0,0,1-.05.13,2.14,2.14,0,0,1,.43-.19h0c0,.12-.13.23,0,.36a4.12,4.12,0,0,1,2.16.41l.26-.35c.06,0,.11.16,0,.23.26.15,0-.23.15-.36s.19.21.09.31c.47-.29,1.33-.62,1.81-.21l-.1.1c.22.1.34-.18.46-.34a.35.35,0,0,0,.15,0l.12,0h0a1.52,1.52,0,0,0,.21,0l.25,0a1.36,1.36,0,0,0,.56.35c.09,0,.17-.08.25-.19l.25,0v0l0,0,.39.08,0,0,.08,0,.21.06s.05,0,.07.06,0,0,0,0a34.44,34.44,0,0,1,4.54,1.41c-5.72-.53-.21.33,4.35,1.17h0l.25,0c.06.07.22.09,0,.39.31-.36.42,0,.7-.14,0,0-.08.08-.09,0s0,.23,0,.34a1.07,1.07,0,0,1,.46-.43l.07,0c-.09.28-.27.3-.39.6.15-.28.34-.17.43-.42a1,1,0,0,1-.1.45c.25-.42.12,0,.33-.25,0,.28-.19.42,0,.36,0,.17-.21.25-.21.25s.23-.28.36-.45c.21,0-.05.28-.09.48.15,0,.39-.28.45-.23a.27.27,0,0,1-.07.14c.25-.19.32.17.62-.09a.2.2,0,0,1,0,.09,4,4,0,0,1,.22-.46c.07,0,.23-.14.13.09,0,0-.08,0-.13.11l.11-.06c-.11.34-.14.06-.27.29.18,0,.46-.21.51-.07-.15.32-.28,0-.3.32l-.08-.2c-.15.54-.07-.08-.25.49.14.19.3,0,.44.16.14-.14.12-.26.26-.4.44-.15-.21.89.22.59.16-.17.39-.54.42-.26l-.24.32c.17.14.38-.44.45-.1-.11.12-.21,0-.2.09,0,.35.19-.14.29-.09l-.15.32c.23.07.57,0,.82,0-.07.09-.16.16-.16.29.36,0,.57.37.72.7l.25-.21s0,.15-.08.19.11-.17.21-.25,0,.2-.09.26c.3-.13.79-.2.8.2l-.08.06c.07.2.49-.45.47-.12l-.06,0c.23.3.72.28.66.84.31-.35.16.37.55-.14,0,.38-.14.43-.07.77,0,.07.34-.25.45-.24l-.21.27.32-.2-.22.35h.12a.37.37,0,0,1,.11-.23c.21,0,.08.39,0,.52h.41a.79.79,0,0,1-.26.13c.35-.14-.24.28.08.15a1.8,1.8,0,0,1,.21-.19c-.1.2,0,.32.14.35l-.19.14c.08.2.35.26.48.46.05-.14.4-.37.47-.34l-.29.24c.21-.09.07-.14.36-.22,0,.1-.32.29-.45.32h.17c-.09.07-.16.08-.28.16.22-.1-.23.34.14.18l-.09.06c.1.19.25.21.34.36.3-.14.26,0,.53-.1-.05.18-.24.42-.17.56s.28-.06.49-.07c-.29.1-.22.25-.46.23a1.06,1.06,0,0,0,.41.43.56.56,0,0,1,.28-.1c.06,0-.11.13-.26.15h0c.26.11.05.33-.14.5s-.38.33,0,.43h0c.12.07.22.15.34.23-.06.11-.24-.07-.44,0,.53.26-.1.39.23.63-1,.06,0,.6-.67.71l.22,0c.21.11-.14,0-.19.08.17,0,.21,0,.32,0,.15.56-.61.91-1,1.25-.13.13,1.05.57.45.57l0,0s0,0,0-.06v0l-.28-.18c.29.56-.36.65-.19,1.18-.08-.07-.19-.14-.17-.17-.31-.1-.17.24,0,.38-.05,0-.2-.11-.33-.15s0,.08,0,.17l-.06.08h0a.19.19,0,0,1-.08-.1c.07.1,0,.15,0,.23a2.27,2.27,0,0,1-.31.31h-.08l.06,0a1.83,1.83,0,0,0-.69.81.32.32,0,0,1,0-.22c-.07.09-.27.1-.07.33l0-.14a.51.51,0,0,1,.24.33s-.1,0-.33-.14a5.22,5.22,0,0,1,0,.58c-.08,0-.17,0-.32-.18l0,.07-.05,0s0,0,0,.06a1.52,1.52,0,0,1-.18-.32.48.48,0,0,0,.14.41c-.13,0-.23,0-.29-.29-.22.39.11.55-.19.78-.09-.11-.07-.21-.15-.37,0,.35.07.69-.26.8,0-.08-.14-.15-.07-.21a2.35,2.35,0,0,0-.39.88l0,0s0,.06,0,.08a.71.71,0,0,1-.47.44c-.28-.61-.3,0-.68-.45l-.14.34.27.12c-.22.18-.16.65-.46.66v-.31l-.31.38-.07,0,.13.28a.19.19,0,0,0-.17.15.34.34,0,0,0,.18-.13l0,0,.13-.25-.13,0,.25,0a.44.44,0,0,0,.08.31.94.94,0,0,1-.47.37h0l0,0a.93.93,0,0,1,0-.24c-.08,0-.13.06-.09.16-.15-.25.28-.25-.08-.51a3,3,0,0,0-.43.68.63.63,0,0,0-.12-.14c.16.36-.22.48-.27.78l-.06.07a.83.83,0,0,0-.19-.23l.12.29-.08.06c-.1,0-.15-.07-.25-.22-.2.12,0,.25.12.36l-.14.09a.14.14,0,0,1,0-.09.89.89,0,0,0-.37.29c-.05-.13-.18-.33-.15-.26a.68.68,0,0,0-.29.22l-.21-.06.11.2a2.71,2.71,0,0,0-.22.38c-.18-.24.27-.26-.09-.5a4,4,0,0,0-.5.87c-.21.09-.41.27-.61.33a.47.47,0,0,1,0,.16l-.38.26a.51.51,0,0,0-.26.14l0,0a.8.8,0,0,0-.35.31l-.81.55s0-.09-.05-.07l-.13.19a33.55,33.55,0,0,1-3.69,2.13c.65-.32,1.21-.62,1.73-.91-1.53.91-3.07,1.77-4.64,2.56,1.08-.28,1.39-.15,1.19.23-.11,0-.43-.07-.5.11l.07.11c-.06-.16.21-.07.35-.1a3.48,3.48,0,0,1-.55.61.36.36,0,0,1-.08-.09.31.31,0,0,0,0,.08.24.24,0,0,1-.05-.16.43.43,0,0,0,0,.07.45.45,0,0,0,.09.1.08.08,0,0,0,0,.07l-.12.1a1,1,0,0,1,0-.17,1.29,1.29,0,0,0-.08.28l-.27.22a1.55,1.55,0,0,0,0-.22c-.06.11-.14.25-.2.39l-.43.33a.91.91,0,0,0-.13-.16,1.43,1.43,0,0,1,.06.21l-.68.49,0-.09-.06.15c-2.46,1.71-5.89,3.64-7.29,3.82,5.83-5.15-.57-.49-3.91,1.05-.21-.66-.41-1.15-.63-1.18a10.9,10.9,0,0,0,1.44,3.63c-.23-.54-.42-1.17-.6-1.75,3.49,5.7,44-15.06,63.3-19.35,0,.2.05.38.4.44l.26-.21.12.1-.25.06c.17.08.24,0,.32-.13a.27.27,0,0,0,.15.11l.11-.14q.58,1.32,1.26,2.61a11.64,11.64,0,0,0-4.51.59,25,25,0,0,1,4.75-.14c2.78,5.17,6.49,9.75,10.61,12.44a6,6,0,0,1-2.17-1.43c4.11,10.15,31.66,9.25,20.29,12.74,2.78.1,9.74,1.5,8.53.11,8.6,3.41,15,1.35,25.16,2,3.5.28-2.45,1.6-3.08,1.7,5.21.33,5.29-4.58,9.81-3.74,5.16,4.43,14.87-5.52,17.62-3.33,6.55-2.85,14.22-6.24,20.75-9.83,9.65,13.55,26.28,20.45,46.07,16.46a.57.57,0,0,1-.25.09l1.4-.25a.27.27,0,0,0,0-.09,71.51,71.51,0,0,0,14.94-5.18c-11.15,1.86,16.1-6.38,17.38-8,3.33-2.11,14-9.86,9-5.59,1.86-1.15,2.16.06,6.55-3.57,1.82-1.49,3.67-3,5.54-4.43,7.37,47.3,68.27,37,86.33-26.17,4.07-1.15,16.56-1.31,28.81-2.07-17.45,15.3-34.11,37.55-19.29,35.43a29.23,29.23,0,0,1-6.41,1.75c11.15,2.26,40.34-13.19,41.32-13.85,1.54-1.78,6.67-4.91,8.3-7.07.64,7.53,11.25,14.45,18.4,12.1-2.1.93,5.64-.17,3.26,1,19.8-8.55,38.81-25.17,45.27-47.49l0,.15c-1.09-7.78,15.55,5.86,10,3.12-1.89-1-6.63-6-8-3.59,3.49.56,6.39,3,9.32,4.9,1.23,4.62-11.24,21.26-4.19,10.63-20,20.11-5.81,43.49,6.92,35,1.29-.77,7.34.21,7.38-1.22-7.73,4.48,3.72-3.47,6.19-5.13,3.23-3,.18,1.3,6.21-2.55,2-1,3.32-3.15.9.74,2-2.19,6.31-8.52,3.7-4.51,5.87-4.62,9.28-12.4,7.71-8,.48-.69,11.95-14.61,10.34-10.66,6.36-7.52,8.12-9.48,11.28-17.89C941.74,82.3,940.55,78.49,940,77.78ZM686.86,75.35c6.91-24.15,15.86-42.55,31-56.56-.61.9-1.25,1.73-1.81,2.67,53.66-46.6-10.38,65.47-35.24,81.48C682.41,94.43,685.15,74,686.86,75.35Zm-6.63,25.71,0,2.2-.21.12C680.13,102.65,680.19,101.89,680.23,101.06Zm-209.1,19.57s.11.05.2.08l-.24,0S471.07,120.64,471.13,120.63Zm-.35.17h0l-.13,0Zm0,0,0,.07h-.2Zm-.8-.95v0a.19.19,0,0,1,0-.08c.08,0,.12,0,.13,0Zm-74.33-18.6,0,0a.57.57,0,0,1,0-.14c.11,0,.15,0,.16.07A.74.74,0,0,0,395.66,101.3Zm-60.35,11c7.61-4.59-.26,3.66-1.64,3.57C331.75,116.47,335,111.9,335.31,112.35Zm-6.84,4.5a21.92,21.92,0,0,1,5.63-4C333.39,113.65,328.13,118.82,328.47,116.85Zm0,1.38c-1.19,1.85.09.78,1.87-.91-1.91,1.84-3.49,3.42-5,5A20.22,20.22,0,0,1,328.46,118.23ZM151.05,36.88c5.61-3.26.29,9.15.93,10.39-3.23,4.2-.24-2-3.74,4l.3-1.27C133.85,98.66-7.92,141.42,80.92,67.32c.48-1.06,1.49-2.31,2.49-1.48-.35-1.15,1.53-1.73,2.5-.82-.29-1.47,1.36-1.61,1.77-2.8,0,.13,0,.38-.07.36,2,.68.9-4.7,2.36-.69-.07-.61.54-1.13,0-1.57.81.32.56,0,1.3.73-.89-1.73,1.7-1.36,1.86-.58.07-1-1-2.64.9-.6.48-.54.06-1.9,1-1.49,15.09-6.79,22.42-13.06,33.4-14.24.55-2.4.63.52,1.51-.65-1.85-.92,1.59-1,1.62-.12,2-2,3.79-.54,8.63-2.94-1.13-.41-.55-2.33,0-.56-.93-2.32,1.12.2.94.52C144.44,40.26,150,35.26,151.05,36.88ZM88.76,22.63c.74,1.48-2.38.93-5.46,1.93C84.84,24.05,86.75,23.37,88.76,22.63ZM263.89,124.07c2.4-8.76,7-15.29,9.91-24.28-2.46,2.87-.69-1.39-.44-3.07q-2.1,5.63-3.74,11.38c.36-2.29.92-5.45,1.43-7.68-1.43,3.35-2.13,7.39-3,9.38.47-3.72.6-3.3-.73-1.9,5.74-13.81,12.66-22.37,20.5-36.6-5.61,3.75,22.06-26.64,28.36-33-.44,1.69-.15,2.05-.78,2.89,3.4-3.09,9-5.38,8.56.36.39.2-.64,4.13.85,2-8.3,15.25-17.22,31.51-27.19,45.41,0-.44-.3-.25.4-1.09-4.75,5-1.68,6.22-7.52,12-3.95,2.78,2.59-4.16.36-2.23-4,.6-7.78,10-12.14,12.09l.92-1.16c-5.59,5.32-10.52,11.7-16.28,17.34C263.51,125.27,263.69,124.67,263.89,124.07Zm-.33,12.67a3.13,3.13,0,0,1-.47-1C263.78,135,263.49,136.17,263.56,136.74Zm165.13-23.19a.79.79,0,0,1-.32-.15l.07,0c0,.08.07.15.24.1A.28.28,0,0,0,428.69,113.55Zm-.29-1.35h0l-.2-.08.14,0,.07.05Zm1-3.33h-.12l-.12-.13C429.22,108.76,429.37,108.75,429.36,108.87Zm-9.68-2.42a.7.7,0,0,1-.49.08s.07,0,.11,0l0,0Zm.38.56a.21.21,0,0,1,.06-.21.67.67,0,0,1,.29,0A.31.31,0,0,0,420.06,107Zm-21.15-5.82c.1,0,.14,0,.15.07l-.18,0,0,0A.75.75,0,0,1,398.91,101.19Zm-1.84.33a.9.9,0,0,0-.27.11.23.23,0,0,0-.05-.12Zm-2.44,1.84-.18-.07a.45.45,0,0,1,.19.06A0,0,0,0,0,394.63,103.36Zm.05,0,0,0a.58.58,0,0,0,.08.1Zm5.34,0,.22,0,.07.06A2.36,2.36,0,0,0,400,103.37Zm20.42,3.77c-.09,0,0-.17,0-.25a.11.11,0,0,1,.07,0l.15.07A1,1,0,0,0,420.44,107.14Zm.67,1.86-.07,0,.07,0Zm.27.14a.41.41,0,0,0-.11-.07c0-.1.1-.18.12-.16S421.38,109,421.38,109.14Zm.12-1.71-.31.37a3.28,3.28,0,0,0,.08-.63.47.47,0,0,0,.16,0,.1.1,0,0,0,.05,0,.11.11,0,0,0,0,.06.68.68,0,0,0,0,.12s0,0,.05,0h0v.07l0,0,0,.12S421.5,107.51,421.5,107.43Zm.82.67a.24.24,0,0,1,.09-.12l.13,0C422.45,108.11,422.34,108.18,422.32,108.1Zm.37.25c-.11.05-.16-.12-.11-.33a1,1,0,0,1,.31.16A1.64,1.64,0,0,0,422.69,108.35Zm.18,0,.1-.09s0,.07.06.11S422.9,108.43,422.87,108.32Zm.19.16a.43.43,0,0,0,0,0s0,0,0,0Zm.06,0,0-.12h0l0-.1c.14-.11.14,0,.14.12A.37.37,0,0,1,423.12,108.47Zm.33-.29.07,0-.15.13A.16.16,0,0,1,423.45,108.18Zm0,.18.1-.15.17.06Zm.43.09a.48.48,0,0,0,.05-.11h0A.86.86,0,0,0,423.88,108.45Zm.89.94.17-.32.12.13C424.93,109.32,424.82,109.42,424.77,109.39Zm1.89,1.27a.47.47,0,0,0,0-.36h0l.19.16Zm.4.14.1.06a.61.61,0,0,1,0,.12h0C427.2,110.86,426.85,111,427.06,110.8ZM643.88,19c.53-.49-2.18-4.27-3-5.21C642.24,14.27,647.52,23.44,643.88,19Zm-73,107.54c-5.54-13.42-.35-37.68.9-38.71C576.67,72.19,588,42,593.51,38.1c4.12-4.18,2.88-5.6,8.1-10.22-.52.89-1,1.79-1.47,2.71,6.4-6.84,8.81-13.7,17.44-14.06,0-2,9.72-4.52,5.62-2.22,7.6-.11,16.6,2,16.83,10.42a15.81,15.81,0,0,0-8.47-9.09c.26,1.31,3.34,3.4.62,3.21,5.43.95,10.67,11,8.12,13.64,1.81,4.83-9.44,22.93-4.42,20.76.12-.42.84-2.08,1.28-3.28,0,.1-.08.21-.12.34-.11.33-.14.53-.3.95.88-.79,1-2.88.43-1.31a8,8,0,0,0,.34-1.1v.27a63.52,63.52,0,0,0,2.65-8.37c3.15,8.77-38.93,67.57-31.65,54.44C601.1,104,596.55,110,590,113.88,584.9,115.89,578.31,121.23,570.89,126.57Zm66.49-79.73a2.47,2.47,0,0,1-.24-1.08C639.08,40.16,638.07,44,637.38,46.84Zm-64,84a13,13,0,0,1,3.27-1.38,6.9,6.9,0,0,0-2.47,2.28C573.88,131.46,573.62,131.17,573.36,130.85Zm104.51-7.08a25.13,25.13,0,0,1-.55-4l1.09-.86C678.16,120.52,678,122.14,677.87,123.77ZM812.11,91.39c0,.1,0,.2,0,.3s-.26.23-.39.34A3.1,3.1,0,0,0,812.11,91.39Zm-5.86,11.74c-4.79,5.72-9.47,12-11,10.49-5.13,2.54-7.32,7.89-13.15,9.07-3.15.1,1.15-1.47,1.8-1.89-1.53-2.12-7.5,3-9.86,1.48C778.61,113.73,786.13,103,796.2,97l1.71-.22c-1.16,1.42.25,1,1.24-.18a49.05,49.05,0,0,0,8-1.77c.36-.06.73-.14,1.13-.24a16.29,16.29,0,0,0-1.42,2.62,13.5,13.5,0,0,1,1.84-2.73c.35-.09.71-.18,1.08-.29A15.54,15.54,0,0,0,806.25,103.13Zm4.1-9.69a6.07,6.07,0,0,1-.85.37,8.35,8.35,0,0,0,1.19-.73Zm.58,2.57c.22-.86.39-1.65.53-2.4l.8-.28C812.31,95.07,812,96.27,810.93,96Z"/><path class="cls-1" d="M824,87.72c.06-.41,0-.53,0,0Z"/><path class="cls-1" d="M824,88v-.27a4.68,4.68,0,0,1-.11.5C823.93,88.2,824,88.13,824,88Z"/><path class="cls-1" d="M942.73,80.86c.83-1.2-.61-2.56-.57-3.13a3.51,3.51,0,0,0,0-.73C941.59,78.32,943.2,79.61,942.73,80.86Z"/><path class="cls-1" d="M1182.57,123.33l-.06.06,0,0h0A.14.14,0,0,0,1182.57,123.33Z"/><path class="cls-1" d="M1138.83,115c.14,0,0-.09,0-.24Z"/><path class="cls-1" d="M1158.4,117.21c-.11,0-.2-.18-.27-.15S1158.29,117.34,1158.4,117.21Z"/><path class="cls-1" d="M1122.89,115.28c-.06,0-.09,0-.09.07S1122.91,115.3,1122.89,115.28Z"/><path class="cls-1" d="M1114.47,115.77l.23.06C1114.71,115.74,1114.58,115.78,1114.47,115.77Z"/><path class="cls-1" d="M1110.85,116.56h-.06a.5.5,0,0,0,0,.13Z"/><path class="cls-1" d="M1127,115.73h0C1126.93,115.76,1127,115.75,1127,115.73Z"/><path class="cls-1" d="M1184.51,120.74a.59.59,0,0,1,0,.26C1184.56,120.82,1184.92,120.9,1184.51,120.74Z"/><path class="cls-1" d="M1137,112.66a.65.65,0,0,0,.22.17s0,0,0-.07Z"/><path class="cls-1" d="M1114.38,115.74s0,0,0,0l0,0Z"/><polygon class="cls-1" points="1168.64 114.84 1168.62 114.91 1168.7 114.87 1168.64 114.84"/><polygon class="cls-1" points="1135.38 112.74 1135.38 112.74 1135.42 112.74 1135.38 112.74"/><path class="cls-1" d="M1106.31,117.47l-.44.07c.1.07.24.16.06.24C1106.55,117.89,1105.75,117.61,1106.31,117.47Z"/><path class="cls-1" d="M1107.67,117.21c-.22.11,0,.14,0,.19C1107.83,117.28,1107.86,117.25,1107.67,117.21Z"/><path class="cls-1" d="M1117.49,115.86c.18,0,0-.09,0-.23Z"/><polygon class="cls-1" points="1119.06 114.38 1119.33 114.29 1119.13 114.16 1119.06 114.38"/><polygon class="cls-1" points="1120.49 115.9 1120.79 115.8 1120.57 115.86 1120.49 115.9"/><polygon class="cls-1" points="1165.98 116.75 1166.27 116.73 1166.15 116.69 1165.98 116.75"/><path class="cls-1" d="M530.83,122.8a.09.09,0,0,0-.06-.16l-.11.17Z"/><path class="cls-1" d="M529.93,122.69c.16-.15.17-.07.35-.26.11,0,.17.1.13.17s.16.07.24,0a.36.36,0,0,0-.48-.13s0-.08,0-.12C530.06,122.38,529.89,122.51,529.93,122.69Z"/><path class="cls-1" d="M513.63,119.25a.08.08,0,0,0,.08,0C513.66,119.22,513.62,119.23,513.63,119.25Z"/><path class="cls-1" d="M520,120.18l-.16-.08C519.83,120.16,519.94,120.15,520,120.18Z"/><path class="cls-1" d="M528.71,122.47a.19.19,0,0,0,.1,0h-.09Z"/><path class="cls-1" d="M522.85,120.47h0l.06-.07Z"/><path class="cls-1" d="M510.56,118.54h0C510.63,118.53,510.6,118.53,510.56,118.54Z"/><path class="cls-1" d="M492,118c.21.14-.34.19,0,.34C492,118.27,492.29,118.08,492,118Z"/><path class="cls-1" d="M504,118.36l0,0s.05,0,.1,0S504,118.34,504,118.36Z"/><polygon class="cls-1" points="502.23 118.31 502.27 118.34 502.33 118.33 502.23 118.31"/><path class="cls-1" d="M528.66,122.44h.06a.06.06,0,0,0,0-.06S528.69,122.44,528.66,122.44Z"/><path class="cls-1" d="M502.79,119.57a.36.36,0,0,0-.16-.12s0,0,0,0Z"/><path class="cls-1" d="M469.88,120.06s0,0,0,0l.06,0,0-.06Z"/><path class="cls-1" d="M520.08,120.21l0,0s0,0,0,0Z"/><polygon class="cls-1" points="478.94 120.11 478.94 120.07 478.89 120.11 478.94 120.11"/><path class="cls-1" d="M525.3,121.75a.36.36,0,0,0,0-.07h0Z"/><path class="cls-1" d="M509.33,119.81h0C509.2,119.83,509.26,119.83,509.33,119.81Z"/><path class="cls-1" d="M514.14,119.91,514,120C514.06,120,514.12,120,514.14,119.91Z"/><polygon class="cls-1" points="504 119.62 504 119.62 503.96 119.62 504 119.62"/><path class="cls-1" d="M514,120a.42.42,0,0,0-.22,0A.35.35,0,0,0,514,120Z"/><path class="cls-1" d="M529.65,122.66h0Z"/><path class="cls-1" d="M529.82,122.64h-.12S529.79,122.68,529.82,122.64Z"/><path class="cls-1" d="M527.89,122.26c.09,0,.21.17.35.16l0,0C528.18,122.45,528,122.18,527.89,122.26Z"/><path class="cls-1" d="M526.73,121.18c-.39-.27.06.15-.38,0l.33.11C526.64,121.26,526.57,121.16,526.73,121.18Z"/><path class="cls-1" d="M525.32,121c.19,0,0-.09,0-.12S525.2,120.87,525.32,121Z"/><path class="cls-1" d="M517.77,119.6c-.14,0,0,.06,0,.14Z"/><polygon class="cls-1" points="516.39 120.28 516.19 120.3 516.31 120.41 516.39 120.28"/><polygon class="cls-1" points="515.52 119.17 515.27 119.19 515.45 119.18 515.52 119.17"/><path class="cls-1" d="M502.61,118.36c.09,0,.12-.23,0-.18Z"/><path class="cls-1" d="M497,118.21a.24.24,0,0,0-.32-.06C496.81,118.16,496.93,118.23,497,118.21Z"/><polygon class="cls-1" points="480.39 118.51 480.18 118.58 480.28 118.58 480.39 118.51"/><path class="cls-1" d="M1017.29,124.48l.12.37.06-.14C1017.45,124.61,1017.33,124.4,1017.29,124.48Z"/><path class="cls-1" d="M1016.25,125.58a.28.28,0,0,0,0-.14.43.43,0,0,1,0,.07Z"/><path class="cls-1" d="M1016.2,125.55l0,0a.44.44,0,0,0-.06-.12A.28.28,0,0,1,1016.2,125.55Z"/><path class="cls-1" d="M997.85,125.11a1,1,0,0,0,.11-.32.37.37,0,0,0-.11,0Z"/><path class="cls-1" d="M1014,126.31l0-.17h0Z"/><path class="cls-1" d="M1002.92,127.15h0C1002.81,127.22,1002.86,127.2,1002.92,127.15Z"/><path class="cls-1" d="M1006.33,126.65a1.17,1.17,0,0,1-.12.2S1006.31,126.89,1006.33,126.65Z"/><polygon class="cls-1" points="998.76 125.99 998.76 125.99 998.74 125.97 998.76 125.99"/><path class="cls-1" d="M1006.06,126.83c.05.09.1.07.15,0S1006.11,126.77,1006.06,126.83Z"/><path class="cls-1" d="M1016.82,125.33h0a.17.17,0,0,1,0,0Z"/><path class="cls-1" d="M1016.86,125.22s0,0,0-.11Z"/><path class="cls-1" d="M1015.69,125.73c.07,0,.25.2.31.08l0-.1C1016,125.91,1015.67,125.49,1015.69,125.73Z"/><polygon class="cls-1" points="1007.82 127.35 1007.86 126.99 1007.72 127.1 1007.82 127.35"/><path class="cls-1" d="M1020.08,123l.33.81v-.28C1020.35,123.34,1020.11,122.88,1020.08,123Z"/><path class="cls-1" d="M1006.1,121.14a.64.64,0,0,0,0,.07C1006.12,121.12,1006.12,121.06,1006.1,121.14Z"/><path class="cls-1" d="M1018.26,123.85a1.38,1.38,0,0,0,0-.26.53.53,0,0,1,0,.13Z"/><path class="cls-1" d="M1011.28,121.35a2.11,2.11,0,0,1-.1-.3Z"/><path class="cls-1" d="M1005.4,119.81v0C1005.45,119.74,1005.43,119.76,1005.4,119.81Z"/><path class="cls-1" d="M1018.18,123.78s0,0,0-.06a2.33,2.33,0,0,0-.13-.27A1,1,0,0,1,1018.18,123.78Z"/><path class="cls-1" d="M996.89,124.26l-.13-.34A.53.53,0,0,0,996.89,124.26Z"/><path class="cls-1" d="M1001,103.44l0-.09S1001,103.38,1001,103.44Z"/><path class="cls-1" d="M996.06,123.16a2.15,2.15,0,0,0,.38-.49,1.59,1.59,0,0,0-.2.09Z"/><polygon class="cls-1" points="1001.07 102.88 1001.2 102.98 1001.11 102.87 1001.07 102.88"/><path class="cls-1" d="M1002.08,126.76l-.05,0C1001.88,126.91,1002,126.87,1002.08,126.76Z"/><path class="cls-1" d="M996.9,124.3h0l0,0Z"/><path class="cls-1" d="M1018.87,123.55h0a.76.76,0,0,1,0-.11Z"/><path class="cls-1" d="M1018.87,123.45v-.11S1018.83,123.37,1018.87,123.45Z"/><path class="cls-1" d="M1018.85,123.13v.21S1018.93,123.33,1018.85,123.13Z"/><path class="cls-1" d="M1017.62,124c.09,0,.42.47.43.25L1018,124C1018.11,124.45,1017.47,123.51,1017.62,124Z"/><polygon class="cls-1" points="1007.66 120.85 1007.69 120.73 1007.57 121.02 1007.66 120.85"/><polygon class="cls-1" points="1005.38 107.27 1005.3 107.3 1005.47 107.52 1005.38 107.27"/><path class="cls-1" d="M407.74,134.86a.32.32,0,0,0,0,.17l0-.1Z"/><path class="cls-1" d="M391,103.71a.9.9,0,0,1-.12-.24C390.92,103.66,390.6,103.73,391,103.71Z"/><path class="cls-1" d="M395.5,101.57s0,0,0,0l.06.06,0-.09Z"/><polygon class="cls-1" points="406.28 104.06 406.28 103.99 406.22 104.05 406.28 104.06"/><path class="cls-1" d="M406.87,135.52l-.06,0a.09.09,0,0,1,0,0Z"/><path class="cls-1" d="M406.77,135.85l.05-.17S406.73,135.74,406.77,135.85Z"/><path class="cls-1" d="M423.62,121.84l0,0C423.68,121.66,423.64,121.74,423.62,121.84Z"/><path class="cls-1" d="M418.73,108.16a2.25,2.25,0,0,1,.08-.24C418.73,108.1,418.57,108.09,418.73,108.16Z"/><polygon class="cls-1" points="424.38 111.8 424.43 111.73 424.37 111.77 424.38 111.8"/></g></g></svg>